<svg width="174" height="60" viewBox="0 0 174 60" fill="none" xmlns="http://www.w3.org/2000/svg">
<path d="M8.11838 56V45.776L0.198375 29.612H3.72638L7.14638 37.064C7.57838 38.048 7.99838 39.008 8.40638 39.944C8.81438 40.88 9.25838 41.852 9.73837 42.86H9.88238C10.3624 41.852 10.8184 40.88 11.2504 39.944C11.6824 39.008 12.1144 38.048 12.5464 37.064L15.9304 29.612H19.3864L11.4304 45.776V56H8.11838ZM18.8706 56L27.7986 29.612H31.5066L40.4706 56H36.9426L32.3346 41.24C31.8546 39.728 31.3986 38.252 30.9666 36.812C30.5346 35.348 30.1026 33.848 29.6706 32.312H29.5266C29.1186 33.848 28.6866 35.348 28.2306 36.812C27.7986 38.252 27.3546 39.728 26.8986 41.24L22.2186 56H18.8706ZM23.5146 47.936V45.308H35.6826V47.936H23.5146ZM44.2649 56V29.612H47.5769V42.86H47.6489L58.7009 29.612H62.4809L54.2009 39.62L63.7409 56H60.0329L52.1129 42.248L47.5769 47.648V56H44.2649ZM67.5383 56V29.612H70.8503V56H67.5383ZM78.0852 56V29.612H93.2772V32.42H81.3972V41.348H91.4772V44.156H81.3972V56H78.0852ZM107.309 56.468C105.965 56.468 104.717 56.276 103.564 55.892C102.413 55.508 101.405 54.872 100.541 53.984C99.7005 53.096 99.0405 51.92 98.5605 50.456C98.0805 48.992 97.8405 47.216 97.8405 45.128V29.612H101.153V45.2C101.153 47.312 101.429 48.98 101.981 50.204C102.533 51.404 103.265 52.268 104.177 52.796C105.113 53.3 106.157 53.552 107.309 53.552C108.485 53.552 109.541 53.3 110.477 52.796C111.413 52.268 112.157 51.404 112.709 50.204C113.285 48.98 113.573 47.312 113.573 45.2V29.612H116.777V45.128C116.777 47.216 116.537 48.992 116.057 50.456C115.601 51.92 114.941 53.096 114.077 53.984C113.213 54.872 112.205 55.508 111.053 55.892C109.901 56.276 108.653 56.468 107.309 56.468ZM126.774 56L121.194 29.612H124.614L127.386 43.976C127.65 45.392 127.914 46.82 128.178 48.26C128.442 49.676 128.706 51.104 128.97 52.544H129.114C129.426 51.104 129.738 49.676 130.05 48.26C130.362 46.82 130.674 45.392 130.986 43.976L134.622 29.612H137.682L141.354 43.976C141.666 45.392 141.978 46.82 142.29 48.26C142.602 49.676 142.926 51.104 143.262 52.544H143.442C143.682 51.104 143.922 49.676 144.162 48.26C144.402 46.82 144.642 45.392 144.882 43.976L147.726 29.612H150.894L145.458 56H141.426L137.43 40.088C137.19 39.032 136.962 38.024 136.746 37.064C136.554 36.08 136.35 35.084 136.134 34.076H135.99C135.798 35.084 135.582 36.08 135.342 37.064C135.102 38.024 134.874 39.032 134.658 40.088L130.734 56H126.774ZM152.007 56L160.935 29.612H164.643L173.607 56H170.079L165.471 41.24C164.991 39.728 164.535 38.252 164.103 36.812C163.671 35.348 163.239 33.848 162.807 32.312H162.663C162.255 33.848 161.823 35.348 161.367 36.812C160.935 38.252 160.491 39.728 160.035 41.24L155.355 56H152.007ZM156.651 47.936V45.308H168.819V47.936H156.651Z" fill="#7A6652"/>
<path d="M22.7306 6.112H32.2186V7.152H22.7306V6.112ZM23.3546 2.24H31.6266V3.28H23.3546V2.24ZM22.7466 9.152H32.2026V10.192H22.7466V9.152ZM26.8586 0.559999H28.0106V5.12H26.8586V0.559999ZM24.6026 4.192H25.7066V9.488H24.6026V4.192ZM29.1786 4.192H30.3146V9.488H29.1786V4.192ZM28.1706 9.984H29.3066V13.728C29.3066 13.92 29.3333 14.0373 29.3866 14.08C29.4506 14.1333 29.5733 14.16 29.7546 14.16C29.808 14.16 29.92 14.16 30.0906 14.16C30.2613 14.16 30.432 14.16 30.6026 14.16C30.7733 14.16 30.896 14.16 30.9706 14.16C31.088 14.16 31.1733 14.1173 31.2266 14.032C31.2906 13.9573 31.3333 13.7973 31.3546 13.552C31.3866 13.296 31.408 12.912 31.4186 12.4C31.504 12.464 31.6053 12.5227 31.7226 12.576C31.84 12.6293 31.9626 12.6773 32.0906 12.72C32.2186 12.7627 32.3306 12.8 32.4266 12.832C32.3946 13.4507 32.3306 13.9307 32.2346 14.272C32.1386 14.6133 32 14.848 31.8186 14.976C31.6373 15.1147 31.3973 15.184 31.0986 15.184C31.0346 15.184 30.9333 15.184 30.7946 15.184C30.656 15.184 30.5013 15.184 30.3306 15.184C30.1706 15.184 30.0213 15.184 29.8826 15.184C29.744 15.184 29.648 15.184 29.5946 15.184C29.2106 15.184 28.912 15.136 28.6986 15.04C28.496 14.9547 28.3573 14.8053 28.2826 14.592C28.208 14.3893 28.1706 14.1013 28.1706 13.728V9.984ZM19.9146 0.704H21.0026V6.16C21.0026 6.97067 20.9706 7.78133 20.9066 8.592C20.8533 9.40267 20.736 10.2027 20.5546 10.992C20.3733 11.7707 20.1013 12.5227 19.7386 13.248C19.376 13.9733 18.8853 14.656 18.2666 15.296C18.2026 15.2107 18.1226 15.1147 18.0266 15.008C17.9413 14.912 17.8453 14.8107 17.7386 14.704C17.632 14.608 17.536 14.528 17.4506 14.464C18.1973 13.6853 18.7413 12.8427 19.0826 11.936C19.424 11.0187 19.648 10.0693 19.7546 9.088C19.8613 8.10667 19.9146 7.12533 19.9146 6.144V0.704ZM18.3626 3.856L19.2106 3.968C19.2 4.46933 19.1626 4.98133 19.0986 5.504C19.0453 6.016 18.9493 6.50133 18.8106 6.96C18.672 7.408 18.4853 7.80267 18.2506 8.144L17.4346 7.728C17.648 7.44 17.8186 7.088 17.9466 6.672C18.0853 6.256 18.1866 5.80267 18.2506 5.312C18.3253 4.82133 18.3626 4.336 18.3626 3.856ZM22.3466 3.264L23.3386 3.664C23.1253 4.208 22.8906 4.784 22.6346 5.392C22.3786 6 22.1386 6.51733 21.9146 6.944L21.1786 6.608C21.3066 6.30933 21.4453 5.96267 21.5946 5.568C21.744 5.17333 21.8826 4.77333 22.0106 4.368C22.1493 3.96267 22.2613 3.59467 22.3466 3.264ZM20.6826 9.568C20.8 9.68533 20.9653 9.872 21.1786 10.128C21.4026 10.384 21.6426 10.6667 21.8986 10.976C22.1546 11.2747 22.3893 11.552 22.6026 11.808C22.8266 12.064 22.9813 12.2507 23.0666 12.368L22.2506 13.232C22.1333 13.04 21.9733 12.8053 21.7706 12.528C21.568 12.24 21.3493 11.9467 21.1146 11.648C20.88 11.3387 20.656 11.0507 20.4426 10.784C20.2293 10.5173 20.0586 10.304 19.9306 10.144L20.6826 9.568ZM25.2426 9.968H26.3786C26.336 10.672 26.2506 11.3067 26.1226 11.872C26.0053 12.4267 25.8133 12.9173 25.5466 13.344C25.28 13.7707 24.9173 14.1387 24.4586 14.448C24.0106 14.768 23.424 15.0347 22.6986 15.248C22.6453 15.1093 22.5493 14.9493 22.4106 14.768C22.2826 14.5973 22.1653 14.4587 22.0586 14.352C22.9013 14.1173 23.5413 13.8133 23.9786 13.44C24.416 13.056 24.72 12.5813 24.8906 12.016C25.072 11.4507 25.1893 10.768 25.2426 9.968ZM35.7546 3.04C36.8746 3.168 37.9413 3.24267 38.9546 3.264C39.9786 3.28533 40.9013 3.25867 41.7226 3.184C42.3733 3.12 43.0186 3.024 43.6586 2.896C44.3093 2.75733 44.9226 2.59733 45.4986 2.416L45.6746 3.568C45.152 3.71733 44.5653 3.856 43.9146 3.984C43.2746 4.112 42.6346 4.208 41.9946 4.272C41.184 4.34667 40.24 4.384 39.1626 4.384C38.096 4.37333 36.9866 4.31467 35.8346 4.208L35.7546 3.04ZM35.4506 6.32C36.3573 6.416 37.2533 6.48 38.1386 6.512C39.024 6.53333 39.8613 6.528 40.6506 6.496C41.44 6.464 42.144 6.41067 42.7626 6.336C43.5306 6.25067 44.2293 6.13867 44.8586 6C45.488 5.86133 46.016 5.72267 46.4426 5.584L46.6346 6.784C46.1973 6.90133 45.6853 7.01867 45.0986 7.136C44.512 7.24267 43.8826 7.33867 43.2106 7.424C42.5493 7.49867 41.7973 7.55733 40.9546 7.6C40.112 7.632 39.2213 7.64267 38.2826 7.632C37.3546 7.61067 36.432 7.57333 35.5146 7.52L35.4506 6.32ZM40.9226 2.832C40.8586 2.58667 40.784 2.34667 40.6986 2.112C40.624 1.86667 40.5493 1.632 40.4746 1.408L41.8346 1.232C41.888 1.68 41.9733 2.14933 42.0906 2.64C42.208 3.12 42.336 3.59467 42.4746 4.064C42.6133 4.52267 42.7466 4.93867 42.8746 5.312C43.024 5.728 43.2 6.17067 43.4026 6.64C43.6053 7.10933 43.8293 7.57333 44.0746 8.032C44.32 8.49067 44.5813 8.928 44.8586 9.344C44.944 9.46133 45.0346 9.57867 45.1306 9.696C45.2373 9.80267 45.344 9.91467 45.4506 10.032L44.7946 11.008C44.496 10.9227 44.144 10.8533 43.7386 10.8C43.3333 10.736 42.9173 10.6827 42.4906 10.64C42.064 10.5867 41.664 10.5387 41.2906 10.496L41.4026 9.52C41.8293 9.56267 42.272 9.61067 42.7306 9.664C43.1893 9.71733 43.5466 9.76 43.8026 9.792C43.3546 9.09867 42.96 8.384 42.6186 7.648C42.288 6.912 42.0053 6.21867 41.7706 5.568C41.6426 5.20533 41.5253 4.86933 41.4186 4.56C41.3226 4.24 41.232 3.936 41.1466 3.648C41.072 3.36 40.9973 3.088 40.9226 2.832ZM37.7706 9.76C37.5786 10.0373 37.4186 10.32 37.2906 10.608C37.1626 10.896 37.0986 11.216 37.0986 11.568C37.0986 12.2293 37.3973 12.7253 37.9946 13.056C38.6026 13.3867 39.536 13.552 40.7946 13.552C41.5413 13.552 42.2186 13.5253 42.8266 13.472C43.4346 13.4187 44.0266 13.3333 44.6026 13.216L44.5546 14.496C44 14.5813 43.408 14.6453 42.7786 14.688C42.1493 14.7413 41.4933 14.768 40.8106 14.768C39.7653 14.768 38.8746 14.6613 38.1386 14.448C37.4133 14.2347 36.8586 13.9093 36.4746 13.472C36.1013 13.0347 35.9093 12.4747 35.8986 11.792C35.888 11.3333 35.9413 10.928 36.0586 10.576C36.1866 10.2133 36.3413 9.856 36.5226 9.504L37.7706 9.76ZM50.2666 3.712H63.6266V4.896H50.2666V3.712ZM49.7226 13.392H64.0746V14.576H49.7226V13.392ZM56.2346 0.559999H57.4826V4.368H56.2346V0.559999ZM60.0426 5.632L61.4186 5.888C61.248 6.53867 61.0613 7.22667 60.8586 7.952C60.656 8.66667 60.448 9.38133 60.2346 10.096C60.0213 10.8 59.8026 11.472 59.5786 12.112C59.3653 12.752 59.1573 13.328 58.9546 13.84L57.8026 13.552C58.0053 13.04 58.2133 12.4587 58.4266 11.808C58.64 11.1467 58.8426 10.4587 59.0346 9.744C59.2373 9.01867 59.424 8.304 59.5946 7.6C59.776 6.896 59.9253 6.24 60.0426 5.632ZM52.4106 6.016L53.5466 5.728C53.8346 6.432 54.0853 7.17867 54.2986 7.968C54.5226 8.75733 54.704 9.52533 54.8426 10.272C54.992 11.0187 55.088 11.6907 55.1306 12.288L53.8986 12.592C53.8773 12.0053 53.7973 11.3333 53.6586 10.576C53.52 9.81867 53.344 9.04533 53.1306 8.256C52.9173 7.456 52.6773 6.70933 52.4106 6.016ZM66.2506 3.376C66.56 3.36533 66.8373 3.35467 67.0826 3.344C67.328 3.32267 67.5253 3.30667 67.6746 3.296C67.9306 3.264 68.2986 3.22667 68.7786 3.184C69.2693 3.13067 69.8293 3.07733 70.4586 3.024C71.088 2.96 71.7653 2.896 72.4906 2.832C73.216 2.768 73.9466 2.704 74.6826 2.64C75.2693 2.58667 75.824 2.544 76.3466 2.512C76.8693 2.46933 77.3546 2.43733 77.8026 2.416C78.2506 2.384 78.6506 2.36267 79.0026 2.352V3.632C78.704 3.62133 78.3626 3.62133 77.9786 3.632C77.5946 3.64267 77.216 3.66933 76.8426 3.712C76.4693 3.744 76.144 3.80267 75.8666 3.888C75.3013 4.06933 74.7893 4.34667 74.3306 4.72C73.8826 5.08267 73.4986 5.504 73.1786 5.984C72.8586 6.45333 72.6133 6.94933 72.4426 7.472C72.2826 7.984 72.2026 8.47467 72.2026 8.944C72.2026 9.57333 72.3093 10.1227 72.5226 10.592C72.736 11.0507 73.024 11.44 73.3866 11.76C73.76 12.08 74.1813 12.3413 74.6506 12.544C75.1306 12.7467 75.632 12.896 76.1546 12.992C76.6773 13.088 77.2 13.1467 77.7226 13.168L77.2586 14.496C76.672 14.4747 76.0746 14.3893 75.4666 14.24C74.8693 14.1013 74.2986 13.8987 73.7546 13.632C73.2106 13.3547 72.7253 13.008 72.2986 12.592C71.872 12.176 71.536 11.6907 71.2906 11.136C71.0453 10.5813 70.9226 9.94667 70.9226 9.232C70.9226 8.4 71.0666 7.632 71.3546 6.928C71.6533 6.21333 72.032 5.58933 72.4906 5.056C72.9493 4.52267 73.424 4.112 73.9146 3.824C73.5733 3.86667 73.152 3.91467 72.6506 3.968C72.1493 4.02133 71.6053 4.08 71.0186 4.144C70.4426 4.19733 69.8666 4.26133 69.2906 4.336C68.7146 4.41067 68.1706 4.48533 67.6586 4.56C67.1573 4.624 66.736 4.69333 66.3946 4.768L66.2506 3.376ZM93.4186 2.848C93.4186 3.136 93.52 3.38667 93.7226 3.6C93.9253 3.80267 94.176 3.904 94.4746 3.904C94.7626 3.904 95.008 3.80267 95.2106 3.6C95.424 3.38667 95.5306 3.136 95.5306 2.848C95.5306 2.54933 95.424 2.29867 95.2106 2.096C95.008 1.88267 94.7626 1.776 94.4746 1.776C94.176 1.776 93.9253 1.88267 93.7226 2.096C93.52 2.29867 93.4186 2.54933 93.4186 2.848ZM92.6826 2.848C92.6826 2.51733 92.7626 2.21867 92.9226 1.952C93.0826 1.67467 93.296 1.456 93.5626 1.296C93.84 1.12533 94.144 1.04 94.4746 1.04C94.7946 1.04 95.0933 1.12533 95.3706 1.296C95.648 1.456 95.8666 1.67467 96.0266 1.952C96.1866 2.21867 96.2666 2.51733 96.2666 2.848C96.2666 3.17867 96.1866 3.47733 96.0266 3.744C95.8666 4.01067 95.648 4.22933 95.3706 4.4C95.0933 4.56 94.7946 4.64 94.4746 4.64C94.144 4.64 93.84 4.56 93.5626 4.4C93.296 4.22933 93.0826 4.01067 92.9226 3.744C92.7626 3.47733 92.6826 3.17867 92.6826 2.848ZM84.3786 9.184C84.5493 8.768 84.7146 8.31467 84.8746 7.824C85.0453 7.33333 85.2 6.82667 85.3386 6.304C85.488 5.77067 85.616 5.248 85.7226 4.736C85.8293 4.21333 85.904 3.71733 85.9466 3.248L87.3706 3.552C87.3493 3.66933 87.3173 3.79733 87.2746 3.936C87.232 4.064 87.1946 4.19733 87.1626 4.336C87.1306 4.47467 87.104 4.60267 87.0826 4.72C87.0293 4.96533 86.9546 5.28533 86.8586 5.68C86.7626 6.07467 86.6506 6.50667 86.5226 6.976C86.3946 7.44533 86.256 7.92 86.1066 8.4C85.9573 8.86933 85.7973 9.30667 85.6266 9.712C85.4346 10.2027 85.2106 10.7093 84.9546 11.232C84.7093 11.744 84.4426 12.2453 84.1546 12.736C83.8666 13.2267 83.5733 13.6853 83.2746 14.112L81.9146 13.536C82.416 12.864 82.88 12.1387 83.3066 11.36C83.744 10.5707 84.1013 9.84533 84.3786 9.184ZM92.2506 8.576C92.0906 8.16 91.9146 7.72267 91.7226 7.264C91.5306 6.80533 91.328 6.34667 91.1146 5.888C90.9013 5.41867 90.6933 4.98133 90.4906 4.576C90.2986 4.16 90.112 3.808 89.9306 3.52L91.2266 3.088C91.3866 3.36533 91.5626 3.70667 91.7546 4.112C91.9573 4.51733 92.1653 4.94933 92.3786 5.408C92.592 5.86667 92.8 6.33067 93.0026 6.8C93.2053 7.26933 93.392 7.71733 93.5626 8.144C93.7226 8.53867 93.8933 8.98133 94.0746 9.472C94.256 9.952 94.432 10.4427 94.6026 10.944C94.784 11.4347 94.9493 11.9147 95.0986 12.384C95.248 12.8427 95.376 13.2533 95.4826 13.616L94.0586 14.08C93.9306 13.536 93.7653 12.9493 93.5626 12.32C93.3706 11.68 93.1626 11.04 92.9386 10.4C92.7146 9.74933 92.4853 9.14133 92.2506 8.576ZM101.32 2.272C101.608 2.464 101.938 2.704 102.312 2.992C102.685 3.26933 103.064 3.568 103.448 3.888C103.842 4.19733 104.21 4.50133 104.552 4.8C104.893 5.09867 105.176 5.36 105.4 5.584L104.392 6.592C104.189 6.38933 103.928 6.13867 103.608 5.84C103.288 5.54133 102.936 5.232 102.552 4.912C102.168 4.58133 101.789 4.272 101.416 3.984C101.042 3.68533 100.706 3.44 100.408 3.248L101.32 2.272ZM99.9435 12.992C100.882 12.8533 101.736 12.6613 102.504 12.416C103.282 12.1707 103.992 11.8933 104.632 11.584C105.272 11.2747 105.842 10.9653 106.344 10.656C107.165 10.144 107.922 9.55733 108.616 8.896C109.309 8.224 109.917 7.53067 110.44 6.816C110.962 6.10133 111.378 5.41867 111.688 4.768L112.456 6.128C112.093 6.78933 111.645 7.46133 111.112 8.144C110.578 8.82667 109.976 9.48267 109.304 10.112C108.632 10.7413 107.89 11.312 107.08 11.824C106.546 12.1547 105.96 12.48 105.32 12.8C104.69 13.12 103.997 13.4133 103.24 13.68C102.493 13.936 101.677 14.144 100.792 14.304L99.9435 12.992ZM114.52 10.448H128.872V11.472H114.52V10.448ZM114.92 1.856H128.52V2.864H114.92V1.856ZM124.056 9.008H125.24V14C125.24 14.3413 125.192 14.5973 125.096 14.768C125 14.9387 124.818 15.0667 124.552 15.152C124.296 15.2373 123.938 15.2853 123.48 15.296C123.032 15.3173 122.466 15.328 121.784 15.328C121.762 15.1573 121.709 14.976 121.624 14.784C121.549 14.6027 121.469 14.432 121.384 14.272C121.746 14.272 122.082 14.2773 122.392 14.288C122.712 14.2987 122.984 14.2987 123.208 14.288C123.442 14.288 123.608 14.288 123.704 14.288C123.842 14.2773 123.933 14.2507 123.976 14.208C124.029 14.1653 124.056 14.0907 124.056 13.984V9.008ZM121.048 0.575999H122.232V8.752H121.048V0.575999ZM116.968 12.304L117.848 11.648C118.168 11.8507 118.488 12.08 118.808 12.336C119.138 12.592 119.442 12.8533 119.72 13.12C120.008 13.376 120.237 13.616 120.408 13.84L119.448 14.576C119.288 14.352 119.069 14.1067 118.792 13.84C118.525 13.5627 118.226 13.2907 117.896 13.024C117.576 12.7573 117.266 12.5173 116.968 12.304ZM117.224 6.992V8.32H126.168V6.992H117.224ZM117.224 4.848V6.16H126.168V4.848H117.224ZM116.088 3.952H127.352V9.2H116.088V3.952ZM131.72 3.728H136.168V4.64H131.72V3.728ZM139.08 3.728H143.608V4.64H139.08V3.728ZM143.096 1.312H144.312V13.632C144.312 14.0373 144.253 14.3467 144.136 14.56C144.029 14.7733 143.842 14.9333 143.576 15.04C143.298 15.136 142.914 15.1947 142.424 15.216C141.944 15.248 141.341 15.264 140.616 15.264C140.594 15.1467 140.557 15.0133 140.504 14.864C140.461 14.7147 140.408 14.56 140.344 14.4C140.29 14.2507 140.232 14.1227 140.168 14.016C140.541 14.0267 140.898 14.032 141.24 14.032C141.581 14.0427 141.88 14.0427 142.136 14.032C142.402 14.032 142.584 14.032 142.68 14.032C142.84 14.032 142.946 14.0053 143 13.952C143.064 13.888 143.096 13.7813 143.096 13.632V1.312ZM131.816 1.312H136.888V7.184H131.816V6.176H135.752V2.32H131.816V1.312ZM143.736 1.312V2.32H139.528V6.192H143.736V7.2H138.392V1.312H143.736ZM131.16 1.312H132.344V15.28H131.16V1.312ZM154.68 6.032H160.696V7.12H154.68V6.032ZM150.904 13.584H158.984V14.672H150.904V13.584ZM154.088 4.128H155.304V9.984H154.088V4.128ZM150.264 9.424H159.624V15.264H158.408V10.496H151.448V15.296H150.264V9.424ZM153.544 0.559999H154.776V3.296H153.544V0.559999ZM148.216 2.64H160.92V3.776H148.216V2.64ZM147.624 2.64H148.808V6.784C148.808 7.392 148.786 8.064 148.744 8.8C148.712 9.52533 148.637 10.272 148.52 11.04C148.413 11.7973 148.253 12.544 148.039 13.28C147.837 14.0053 147.565 14.672 147.224 15.28C147.16 15.216 147.058 15.136 146.92 15.04C146.792 14.9547 146.664 14.8693 146.536 14.784C146.408 14.7093 146.29 14.6507 146.184 14.608C146.514 14.032 146.776 13.4133 146.968 12.752C147.16 12.08 147.298 11.3973 147.384 10.704C147.48 10 147.544 9.312 147.576 8.64C147.608 7.968 147.624 7.34933 147.624 6.784V2.64Z" fill="#7A6652"/>
</svg>
