<svg width="175" height="60" viewBox="0 0 175 60" fill="none" xmlns="http://www.w3.org/2000/svg">
<path d="M7.92 56V45.776L-7.03614e-07 29.612H3.528L6.948 37.064C7.38 38.048 7.8 39.008 8.208 39.944C8.616 40.88 9.06 41.852 9.54 42.86H9.684C10.164 41.852 10.62 40.88 11.052 39.944C11.484 39.008 11.916 38.048 12.348 37.064L15.732 29.612H19.188L11.232 45.776V56H7.92ZM18.6722 56L27.6002 29.612H31.3082L40.2722 56H36.7442L32.1362 41.24C31.6562 39.728 31.2002 38.252 30.7682 36.812C30.3362 35.348 29.9042 33.848 29.4722 32.312H29.3282C28.9202 33.848 28.4882 35.348 28.0322 36.812C27.6002 38.252 27.1562 39.728 26.7002 41.24L22.0202 56H18.6722ZM23.3162 47.936V45.308H35.4842V47.936H23.3162ZM44.0665 56V29.612H47.3785V42.86H47.4505L58.5025 29.612H62.2825L54.0025 39.62L63.5425 56H59.8345L51.9145 42.248L47.3785 47.648V56H44.0665ZM67.34 56V29.612H70.652V56H67.34ZM77.8868 56V29.612H93.0788V32.42H81.1988V41.348H91.2788V44.156H81.1988V56H77.8868ZM107.11 56.468C105.766 56.468 104.518 56.276 103.366 55.892C102.214 55.508 101.206 54.872 100.342 53.984C99.5021 53.096 98.8421 51.92 98.3621 50.456C97.8821 48.992 97.6421 47.216 97.6421 45.128V29.612H100.954V45.2C100.954 47.312 101.23 48.98 101.782 50.204C102.334 51.404 103.066 52.268 103.978 52.796C104.914 53.3 105.958 53.552 107.11 53.552C108.286 53.552 109.342 53.3 110.278 52.796C111.214 52.268 111.958 51.404 112.51 50.204C113.086 48.98 113.374 47.312 113.374 45.2V29.612H116.578V45.128C116.578 47.216 116.338 48.992 115.858 50.456C115.402 51.92 114.742 53.096 113.878 53.984C113.014 54.872 112.006 55.508 110.854 55.892C109.702 56.276 108.454 56.468 107.11 56.468ZM126.575 56L120.995 29.612H124.415L127.187 43.976C127.451 45.392 127.715 46.82 127.979 48.26C128.243 49.676 128.507 51.104 128.771 52.544H128.915C129.227 51.104 129.539 49.676 129.851 48.26C130.163 46.82 130.475 45.392 130.787 43.976L134.423 29.612H137.483L141.155 43.976C141.467 45.392 141.779 46.82 142.091 48.26C142.403 49.676 142.727 51.104 143.063 52.544H143.243C143.483 51.104 143.723 49.676 143.963 48.26C144.203 46.82 144.443 45.392 144.683 43.976L147.527 29.612H150.695L145.259 56H141.227L137.231 40.088C136.991 39.032 136.763 38.024 136.547 37.064C136.355 36.08 136.151 35.084 135.935 34.076H135.791C135.599 35.084 135.383 36.08 135.143 37.064C134.903 38.024 134.675 39.032 134.459 40.088L130.535 56H126.575ZM151.809 56L160.737 29.612H164.445L173.409 56H169.881L165.273 41.24C164.793 39.728 164.337 38.252 163.905 36.812C163.473 35.348 163.041 33.848 162.609 32.312H162.465C162.057 33.848 161.625 35.348 161.169 36.812C160.737 38.252 160.293 39.728 159.837 41.24L155.157 56H151.809ZM156.453 47.936V45.308H168.621V47.936H156.453Z" fill="#2E241B"/>
<path d="M21.4541 6.112H30.9421V7.152H21.4541V6.112ZM22.0781 2.24H30.3501V3.28H22.0781V2.24ZM21.4701 9.152H30.9261V10.192H21.4701V9.152ZM25.5821 0.559999H26.7341V5.12H25.5821V0.559999ZM23.3261 4.192H24.4301V9.488H23.3261V4.192ZM27.9021 4.192H29.0381V9.488H27.9021V4.192ZM26.8941 9.984H28.0301V13.728C28.0301 13.92 28.0568 14.0373 28.1101 14.08C28.1741 14.1333 28.2968 14.16 28.4781 14.16C28.5315 14.16 28.6435 14.16 28.8141 14.16C28.9848 14.16 29.1555 14.16 29.3261 14.16C29.4968 14.16 29.6195 14.16 29.6941 14.16C29.8115 14.16 29.8968 14.1173 29.9501 14.032C30.0141 13.9573 30.0568 13.7973 30.0781 13.552C30.1101 13.296 30.1315 12.912 30.1421 12.4C30.2275 12.464 30.3288 12.5227 30.4461 12.576C30.5635 12.6293 30.6861 12.6773 30.8141 12.72C30.9421 12.7627 31.0541 12.8 31.1501 12.832C31.1181 13.4507 31.0541 13.9307 30.9581 14.272C30.8621 14.6133 30.7235 14.848 30.5421 14.976C30.3608 15.1147 30.1208 15.184 29.8221 15.184C29.7581 15.184 29.6568 15.184 29.5181 15.184C29.3795 15.184 29.2248 15.184 29.0541 15.184C28.8941 15.184 28.7448 15.184 28.6061 15.184C28.4675 15.184 28.3715 15.184 28.3181 15.184C27.9341 15.184 27.6355 15.136 27.4221 15.04C27.2195 14.9547 27.0808 14.8053 27.0061 14.592C26.9315 14.3893 26.8941 14.1013 26.8941 13.728V9.984ZM18.6381 0.704H19.7261V6.16C19.7261 6.97067 19.6941 7.78133 19.6301 8.592C19.5768 9.40267 19.4595 10.2027 19.2781 10.992C19.0968 11.7707 18.8248 12.5227 18.4621 13.248C18.0995 13.9733 17.6088 14.656 16.9901 15.296C16.9261 15.2107 16.8461 15.1147 16.7501 15.008C16.6648 14.912 16.5688 14.8107 16.4621 14.704C16.3555 14.608 16.2595 14.528 16.1741 14.464C16.9208 13.6853 17.4648 12.8427 17.8061 11.936C18.1475 11.0187 18.3715 10.0693 18.4781 9.088C18.5848 8.10667 18.6381 7.12533 18.6381 6.144V0.704ZM17.0861 3.856L17.9341 3.968C17.9235 4.46933 17.8861 4.98133 17.8221 5.504C17.7688 6.016 17.6728 6.50133 17.5341 6.96C17.3955 7.408 17.2088 7.80267 16.9741 8.144L16.1581 7.728C16.3715 7.44 16.5421 7.088 16.6701 6.672C16.8088 6.256 16.9101 5.80267 16.9741 5.312C17.0488 4.82133 17.0861 4.336 17.0861 3.856ZM21.0701 3.264L22.0621 3.664C21.8488 4.208 21.6141 4.784 21.3581 5.392C21.1021 6 20.8621 6.51733 20.6381 6.944L19.9021 6.608C20.0301 6.30933 20.1688 5.96267 20.3181 5.568C20.4675 5.17333 20.6061 4.77333 20.7341 4.368C20.8728 3.96267 20.9848 3.59467 21.0701 3.264ZM19.4061 9.568C19.5235 9.68533 19.6888 9.872 19.9021 10.128C20.1261 10.384 20.3661 10.6667 20.6221 10.976C20.8781 11.2747 21.1128 11.552 21.3261 11.808C21.5501 12.064 21.7048 12.2507 21.7901 12.368L20.9741 13.232C20.8568 13.04 20.6968 12.8053 20.4941 12.528C20.2915 12.24 20.0728 11.9467 19.8381 11.648C19.6035 11.3387 19.3795 11.0507 19.1661 10.784C18.9528 10.5173 18.7821 10.304 18.6541 10.144L19.4061 9.568ZM23.9661 9.968H25.1021C25.0595 10.672 24.9741 11.3067 24.8461 11.872C24.7288 12.4267 24.5368 12.9173 24.2701 13.344C24.0035 13.7707 23.6408 14.1387 23.1821 14.448C22.7341 14.768 22.1475 15.0347 21.4221 15.248C21.3688 15.1093 21.2728 14.9493 21.1341 14.768C21.0061 14.5973 20.8888 14.4587 20.7821 14.352C21.6248 14.1173 22.2648 13.8133 22.7021 13.44C23.1395 13.056 23.4435 12.5813 23.6141 12.016C23.7955 11.4507 23.9128 10.768 23.9661 9.968ZM34.4781 3.04C35.5981 3.168 36.6648 3.24267 37.6781 3.264C38.7021 3.28533 39.6248 3.25867 40.4461 3.184C41.0968 3.12 41.7421 3.024 42.3821 2.896C43.0328 2.75733 43.6461 2.59733 44.2221 2.416L44.3981 3.568C43.8755 3.71733 43.2888 3.856 42.6381 3.984C41.9981 4.112 41.3581 4.208 40.7181 4.272C39.9075 4.34667 38.9635 4.384 37.8861 4.384C36.8195 4.37333 35.7101 4.31467 34.5581 4.208L34.4781 3.04ZM34.1741 6.32C35.0808 6.416 35.9768 6.48 36.8621 6.512C37.7475 6.53333 38.5848 6.528 39.3741 6.496C40.1635 6.464 40.8675 6.41067 41.4861 6.336C42.2541 6.25067 42.9528 6.13867 43.5821 6C44.2115 5.86133 44.7395 5.72267 45.1661 5.584L45.3581 6.784C44.9208 6.90133 44.4088 7.01867 43.8221 7.136C43.2355 7.24267 42.6061 7.33867 41.9341 7.424C41.2728 7.49867 40.5208 7.55733 39.6781 7.6C38.8355 7.632 37.9448 7.64267 37.0061 7.632C36.0781 7.61067 35.1555 7.57333 34.2381 7.52L34.1741 6.32ZM39.6461 2.832C39.5821 2.58667 39.5075 2.34667 39.4221 2.112C39.3475 1.86667 39.2728 1.632 39.1981 1.408L40.5581 1.232C40.6115 1.68 40.6968 2.14933 40.8141 2.64C40.9315 3.12 41.0595 3.59467 41.1981 4.064C41.3368 4.52267 41.4701 4.93867 41.5981 5.312C41.7475 5.728 41.9235 6.17067 42.1261 6.64C42.3288 7.10933 42.5528 7.57333 42.7981 8.032C43.0435 8.49067 43.3048 8.928 43.5821 9.344C43.6675 9.46133 43.7581 9.57867 43.8541 9.696C43.9608 9.80267 44.0675 9.91467 44.1741 10.032L43.5181 11.008C43.2195 10.9227 42.8675 10.8533 42.4621 10.8C42.0568 10.736 41.6408 10.6827 41.2141 10.64C40.7875 10.5867 40.3875 10.5387 40.0141 10.496L40.1261 9.52C40.5528 9.56267 40.9955 9.61067 41.4541 9.664C41.9128 9.71733 42.2701 9.76 42.5261 9.792C42.0781 9.09867 41.6835 8.384 41.3421 7.648C41.0115 6.912 40.7288 6.21867 40.4941 5.568C40.3661 5.20533 40.2488 4.86933 40.1421 4.56C40.0461 4.24 39.9555 3.936 39.8701 3.648C39.7955 3.36 39.7208 3.088 39.6461 2.832ZM36.4941 9.76C36.3021 10.0373 36.1421 10.32 36.0141 10.608C35.8861 10.896 35.8221 11.216 35.8221 11.568C35.8221 12.2293 36.1208 12.7253 36.7181 13.056C37.3261 13.3867 38.2595 13.552 39.5181 13.552C40.2648 13.552 40.9421 13.5253 41.5501 13.472C42.1581 13.4187 42.7501 13.3333 43.3261 13.216L43.2781 14.496C42.7235 14.5813 42.1315 14.6453 41.5021 14.688C40.8728 14.7413 40.2168 14.768 39.5341 14.768C38.4888 14.768 37.5981 14.6613 36.8621 14.448C36.1368 14.2347 35.5821 13.9093 35.1981 13.472C34.8248 13.0347 34.6328 12.4747 34.6221 11.792C34.6115 11.3333 34.6648 10.928 34.7821 10.576C34.9101 10.2133 35.0648 9.856 35.2461 9.504L36.4941 9.76ZM48.9901 3.712H62.3501V4.896H48.9901V3.712ZM48.4461 13.392H62.7981V14.576H48.4461V13.392ZM54.9581 0.559999H56.2061V4.368H54.9581V0.559999ZM58.7661 5.632L60.1421 5.888C59.9715 6.53867 59.7848 7.22667 59.5821 7.952C59.3795 8.66667 59.1715 9.38133 58.9581 10.096C58.7448 10.8 58.5261 11.472 58.3021 12.112C58.0888 12.752 57.8808 13.328 57.6781 13.84L56.5261 13.552C56.7288 13.04 56.9368 12.4587 57.1501 11.808C57.3635 11.1467 57.5661 10.4587 57.7581 9.744C57.9608 9.01867 58.1475 8.304 58.3181 7.6C58.4995 6.896 58.6488 6.24 58.7661 5.632ZM51.1341 6.016L52.2701 5.728C52.5581 6.432 52.8088 7.17867 53.0221 7.968C53.2461 8.75733 53.4275 9.52533 53.5661 10.272C53.7155 11.0187 53.8115 11.6907 53.8541 12.288L52.6221 12.592C52.6008 12.0053 52.5208 11.3333 52.3821 10.576C52.2435 9.81867 52.0675 9.04533 51.8541 8.256C51.6408 7.456 51.4008 6.70933 51.1341 6.016ZM64.9741 3.376C65.2835 3.36533 65.5608 3.35467 65.8061 3.344C66.0515 3.32267 66.2488 3.30667 66.3981 3.296C66.6541 3.264 67.0221 3.22667 67.5021 3.184C67.9928 3.13067 68.5528 3.07733 69.1821 3.024C69.8115 2.96 70.4888 2.896 71.2141 2.832C71.9395 2.768 72.6701 2.704 73.4061 2.64C73.9928 2.58667 74.5475 2.544 75.0701 2.512C75.5928 2.46933 76.0781 2.43733 76.5261 2.416C76.9741 2.384 77.3741 2.36267 77.7261 2.352V3.632C77.4275 3.62133 77.0861 3.62133 76.7021 3.632C76.3181 3.64267 75.9395 3.66933 75.5661 3.712C75.1928 3.744 74.8675 3.80267 74.5901 3.888C74.0248 4.06933 73.5128 4.34667 73.0541 4.72C72.6061 5.08267 72.2221 5.504 71.9021 5.984C71.5821 6.45333 71.3368 6.94933 71.1661 7.472C71.0061 7.984 70.9261 8.47467 70.9261 8.944C70.9261 9.57333 71.0328 10.1227 71.2461 10.592C71.4595 11.0507 71.7475 11.44 72.1101 11.76C72.4835 12.08 72.9048 12.3413 73.3741 12.544C73.8541 12.7467 74.3555 12.896 74.8781 12.992C75.4008 13.088 75.9235 13.1467 76.4461 13.168L75.9821 14.496C75.3955 14.4747 74.7981 14.3893 74.1901 14.24C73.5928 14.1013 73.0221 13.8987 72.4781 13.632C71.9341 13.3547 71.4488 13.008 71.0221 12.592C70.5955 12.176 70.2595 11.6907 70.0141 11.136C69.7688 10.5813 69.6461 9.94667 69.6461 9.232C69.6461 8.4 69.7901 7.632 70.0781 6.928C70.3768 6.21333 70.7555 5.58933 71.2141 5.056C71.6728 4.52267 72.1475 4.112 72.6381 3.824C72.2968 3.86667 71.8755 3.91467 71.3741 3.968C70.8728 4.02133 70.3288 4.08 69.7421 4.144C69.1661 4.19733 68.5901 4.26133 68.0141 4.336C67.4381 4.41067 66.8941 4.48533 66.3821 4.56C65.8808 4.624 65.4595 4.69333 65.1181 4.768L64.9741 3.376ZM92.1421 2.848C92.1421 3.136 92.2435 3.38667 92.4461 3.6C92.6488 3.80267 92.8995 3.904 93.1981 3.904C93.4861 3.904 93.7315 3.80267 93.9341 3.6C94.1475 3.38667 94.2541 3.136 94.2541 2.848C94.2541 2.54933 94.1475 2.29867 93.9341 2.096C93.7315 1.88267 93.4861 1.776 93.1981 1.776C92.8995 1.776 92.6488 1.88267 92.4461 2.096C92.2435 2.29867 92.1421 2.54933 92.1421 2.848ZM91.4061 2.848C91.4061 2.51733 91.4861 2.21867 91.6461 1.952C91.8061 1.67467 92.0195 1.456 92.2861 1.296C92.5635 1.12533 92.8675 1.04 93.1981 1.04C93.5181 1.04 93.8168 1.12533 94.0941 1.296C94.3715 1.456 94.5901 1.67467 94.7501 1.952C94.9101 2.21867 94.9901 2.51733 94.9901 2.848C94.9901 3.17867 94.9101 3.47733 94.7501 3.744C94.5901 4.01067 94.3715 4.22933 94.0941 4.4C93.8168 4.56 93.5181 4.64 93.1981 4.64C92.8675 4.64 92.5635 4.56 92.2861 4.4C92.0195 4.22933 91.8061 4.01067 91.6461 3.744C91.4861 3.47733 91.4061 3.17867 91.4061 2.848ZM83.1021 9.184C83.2728 8.768 83.4381 8.31467 83.5981 7.824C83.7688 7.33333 83.9235 6.82667 84.0621 6.304C84.2115 5.77067 84.3395 5.248 84.4461 4.736C84.5528 4.21333 84.6275 3.71733 84.6701 3.248L86.0941 3.552C86.0728 3.66933 86.0408 3.79733 85.9981 3.936C85.9555 4.064 85.9181 4.19733 85.8861 4.336C85.8541 4.47467 85.8275 4.60267 85.8061 4.72C85.7528 4.96533 85.6781 5.28533 85.5821 5.68C85.4861 6.07467 85.3741 6.50667 85.2461 6.976C85.1181 7.44533 84.9795 7.92 84.8301 8.4C84.6808 8.86933 84.5208 9.30667 84.3501 9.712C84.1581 10.2027 83.9341 10.7093 83.6781 11.232C83.4328 11.744 83.1661 12.2453 82.8781 12.736C82.5901 13.2267 82.2968 13.6853 81.9981 14.112L80.6381 13.536C81.1395 12.864 81.6035 12.1387 82.0301 11.36C82.4675 10.5707 82.8248 9.84533 83.1021 9.184ZM90.9741 8.576C90.8141 8.16 90.6381 7.72267 90.4461 7.264C90.2541 6.80533 90.0515 6.34667 89.8381 5.888C89.6248 5.41867 89.4168 4.98133 89.2141 4.576C89.0221 4.16 88.8355 3.808 88.6541 3.52L89.9501 3.088C90.1101 3.36533 90.2861 3.70667 90.4781 4.112C90.6808 4.51733 90.8888 4.94933 91.1021 5.408C91.3155 5.86667 91.5235 6.33067 91.7261 6.8C91.9288 7.26933 92.1155 7.71733 92.2861 8.144C92.4461 8.53867 92.6168 8.98133 92.7981 9.472C92.9795 9.952 93.1555 10.4427 93.3261 10.944C93.5075 11.4347 93.6728 11.9147 93.8221 12.384C93.9715 12.8427 94.0995 13.2533 94.2061 13.616L92.7821 14.08C92.6541 13.536 92.4888 12.9493 92.2861 12.32C92.0941 11.68 91.8861 11.04 91.6621 10.4C91.4381 9.74933 91.2088 9.14133 90.9741 8.576ZM100.043 2.272C100.331 2.464 100.662 2.704 101.035 2.992C101.408 3.26933 101.787 3.568 102.171 3.888C102.566 4.19733 102.934 4.50133 103.275 4.8C103.616 5.09867 103.899 5.36 104.123 5.584L103.115 6.592C102.912 6.38933 102.651 6.13867 102.331 5.84C102.011 5.54133 101.659 5.232 101.275 4.912C100.891 4.58133 100.512 4.272 100.139 3.984C99.7657 3.68533 99.4297 3.44 99.131 3.248L100.043 2.272ZM98.667 12.992C99.6057 12.8533 100.459 12.6613 101.227 12.416C102.006 12.1707 102.715 11.8933 103.355 11.584C103.995 11.2747 104.566 10.9653 105.067 10.656C105.888 10.144 106.646 9.55733 107.339 8.896C108.032 8.224 108.64 7.53067 109.163 6.816C109.686 6.10133 110.102 5.41867 110.411 4.768L111.179 6.128C110.816 6.78933 110.368 7.46133 109.835 8.144C109.302 8.82667 108.699 9.48267 108.027 10.112C107.355 10.7413 106.614 11.312 105.803 11.824C105.27 12.1547 104.683 12.48 104.043 12.8C103.414 13.12 102.72 13.4133 101.963 13.68C101.216 13.936 100.4 14.144 99.515 14.304L98.667 12.992ZM113.243 10.448H127.595V11.472H113.243V10.448ZM113.643 1.856H127.243V2.864H113.643V1.856ZM122.779 9.008H123.963V14C123.963 14.3413 123.915 14.5973 123.819 14.768C123.723 14.9387 123.542 15.0667 123.275 15.152C123.019 15.2373 122.662 15.2853 122.203 15.296C121.755 15.3173 121.19 15.328 120.507 15.328C120.486 15.1573 120.432 14.976 120.347 14.784C120.272 14.6027 120.192 14.432 120.107 14.272C120.47 14.272 120.806 14.2773 121.115 14.288C121.435 14.2987 121.707 14.2987 121.931 14.288C122.166 14.288 122.331 14.288 122.427 14.288C122.566 14.2773 122.656 14.2507 122.699 14.208C122.752 14.1653 122.779 14.0907 122.779 13.984V9.008ZM119.771 0.575999H120.955V8.752H119.771V0.575999ZM115.691 12.304L116.571 11.648C116.891 11.8507 117.211 12.08 117.531 12.336C117.862 12.592 118.166 12.8533 118.443 13.12C118.731 13.376 118.96 13.616 119.131 13.84L118.171 14.576C118.011 14.352 117.792 14.1067 117.515 13.84C117.248 13.5627 116.95 13.2907 116.619 13.024C116.299 12.7573 115.99 12.5173 115.691 12.304ZM115.947 6.992V8.32H124.891V6.992H115.947ZM115.947 4.848V6.16H124.891V4.848H115.947ZM114.811 3.952H126.075V9.2H114.811V3.952ZM130.443 3.728H134.891V4.64H130.443V3.728ZM137.803 3.728H142.331V4.64H137.803V3.728ZM141.819 1.312H143.035V13.632C143.035 14.0373 142.976 14.3467 142.859 14.56C142.752 14.7733 142.566 14.9333 142.299 15.04C142.022 15.136 141.638 15.1947 141.147 15.216C140.667 15.248 140.064 15.264 139.339 15.264C139.318 15.1467 139.28 15.0133 139.227 14.864C139.184 14.7147 139.131 14.56 139.067 14.4C139.014 14.2507 138.955 14.1227 138.891 14.016C139.264 14.0267 139.622 14.032 139.963 14.032C140.304 14.0427 140.603 14.0427 140.859 14.032C141.126 14.032 141.307 14.032 141.403 14.032C141.563 14.032 141.67 14.0053 141.723 13.952C141.787 13.888 141.819 13.7813 141.819 13.632V1.312ZM130.539 1.312H135.611V7.184H130.539V6.176H134.475V2.32H130.539V1.312ZM142.459 1.312V2.32H138.251V6.192H142.459V7.2H137.115V1.312H142.459ZM129.883 1.312H131.067V15.28H129.883V1.312ZM153.403 6.032H159.419V7.12H153.403V6.032ZM149.627 13.584H157.707V14.672H149.627V13.584ZM152.811 4.128H154.027V9.984H152.811V4.128ZM148.987 9.424H158.347V15.264H157.131V10.496H150.171V15.296H148.987V9.424ZM152.267 0.559999H153.499V3.296H152.267V0.559999ZM146.939 2.64H159.643V3.776H146.939V2.64ZM146.347 2.64H147.531V6.784C147.531 7.392 147.51 8.064 147.467 8.8C147.435 9.52533 147.36 10.272 147.243 11.04C147.136 11.7973 146.976 12.544 146.763 13.28C146.56 14.0053 146.288 14.672 145.947 15.28C145.883 15.216 145.782 15.136 145.643 15.04C145.515 14.9547 145.387 14.8693 145.259 14.784C145.131 14.7093 145.014 14.6507 144.907 14.608C145.238 14.032 145.499 13.4133 145.691 12.752C145.883 12.08 146.022 11.3973 146.107 10.704C146.203 10 146.267 9.312 146.299 8.64C146.331 7.968 146.347 7.34933 146.347 6.784V2.64Z" fill="#2E241B"/>
</svg>
