<svg width="297" height="74" viewBox="0 0 297 74" fill="none" xmlns="http://www.w3.org/2000/svg">
<path d="M20.3648 38.538C19.8328 38.538 19.2868 38.496 18.7268 38.412C18.1948 38.328 17.6348 38.216 17.0468 38.076C16.4868 37.908 15.8848 37.712 15.2408 37.488C14.3168 37.152 13.3088 36.76 12.2168 36.312C11.1248 35.864 9.9628 35.318 8.7308 34.674L9.4448 33.75C10.3968 34.142 11.3908 34.534 12.4268 34.926C13.4908 35.318 14.5688 35.64 15.6608 35.892C16.7528 36.144 17.8308 36.27 18.8948 36.27C20.2668 36.27 21.2608 36.018 21.8768 35.514C22.4928 34.982 22.8008 34.268 22.8008 33.372C22.8008 32.476 22.6048 31.566 22.2128 30.642C21.8488 29.718 21.1908 28.668 20.2388 27.492C19.6228 26.708 18.9228 25.924 18.1388 25.14C17.3828 24.328 16.7248 23.53 16.1648 22.746C15.6048 21.934 15.3248 21.15 15.3248 20.394C15.3248 19.806 15.5628 19.232 16.0388 18.672C16.5428 18.112 17.1448 17.594 17.8448 17.118C18.5448 16.642 19.2308 16.208 19.9028 15.816C20.6028 15.424 21.1628 15.088 21.5828 14.808C21.9748 14.556 22.1988 14.318 22.2548 14.094C22.3108 13.842 22.2268 13.52 22.0028 13.128C21.5268 12.232 20.6868 11.392 19.4828 10.608C18.2788 9.824 16.8928 9.124 15.3248 8.508L15.7868 7.5C16.8508 7.724 17.8588 7.99 18.8108 8.298C19.7908 8.606 20.7288 9.026 21.6248 9.558C22.8288 10.23 23.8368 11.098 24.6488 12.162C25.4608 13.198 25.8668 14.304 25.8668 15.48C25.8668 15.816 25.7548 16.068 25.5308 16.236C25.3348 16.376 25.0548 16.474 24.6908 16.53C24.3548 16.586 23.9768 16.628 23.5568 16.656C23.1368 16.684 22.7168 16.74 22.2968 16.824C21.8768 16.908 21.3588 17.062 20.7428 17.286C20.1548 17.51 19.5668 17.79 18.9788 18.126C18.3908 18.434 17.9008 18.798 17.5088 19.218C17.1448 19.61 16.9628 20.03 16.9628 20.478C16.9628 20.898 17.1448 21.374 17.5088 21.906C17.9008 22.41 18.3768 22.956 18.9368 23.544C19.5248 24.104 20.1128 24.664 20.7008 25.224C21.3168 25.756 21.8488 26.26 22.2968 26.736C23.4448 28.024 24.2708 29.284 24.7748 30.516C25.2788 31.72 25.5308 32.952 25.5308 34.212C25.5308 35.696 25.0408 36.788 24.0608 37.488C23.1088 38.188 21.8768 38.538 20.3648 38.538ZM4.7828 39.21C4.3628 39.21 3.8308 38.986 3.1868 38.538C2.5708 38.062 2.0248 37.488 1.5488 36.816C1.0728 36.144 0.834795 35.458 0.834795 34.758C0.834795 34.394 0.848795 34.058 0.876795 33.75C0.932795 33.414 1.0028 33.078 1.0868 32.742L1.9268 32.7C2.1228 33.54 2.4308 34.268 2.8508 34.884C3.2988 35.472 3.7468 35.766 4.1948 35.766C4.4188 35.766 4.6568 35.724 4.9088 35.64C5.1608 35.528 5.4968 35.346 5.9168 35.094C6.3648 34.814 6.9668 34.422 7.7228 33.918C9.2068 32.91 10.6488 31.93 12.0488 30.978C13.4768 29.998 14.8908 29.13 16.2908 28.374C17.6908 27.59 19.1328 26.974 20.6168 26.526C22.1288 26.078 23.6968 25.854 25.3208 25.854C27.0848 25.854 28.6948 26.12 30.1508 26.652C31.6348 27.156 32.9228 27.814 34.0148 28.626C35.1348 29.438 35.9748 30.292 36.5348 31.188C37.0668 31.972 37.4448 32.686 37.6688 33.33C37.9208 33.946 38.0468 34.548 38.0468 35.136C38.0468 35.584 37.9348 35.976 37.7108 36.312C37.4868 36.62 37.1368 36.774 36.6608 36.774C36.2408 36.774 35.8908 36.536 35.6108 36.06C35.3308 35.584 35.0508 35.024 34.7708 34.38C34.4068 33.428 33.9168 32.532 33.3008 31.692C32.7128 30.852 31.9988 30.096 31.1588 29.424C30.3468 28.724 29.4088 28.192 28.3448 27.828C27.3088 27.436 26.1608 27.24 24.9008 27.24C23.5008 27.24 22.1288 27.464 20.7848 27.912C19.4688 28.332 18.1388 28.948 16.7948 29.76C15.4508 30.572 14.0648 31.552 12.6368 32.7C11.2088 33.848 9.7108 35.108 8.1428 36.48C7.6388 36.928 7.2048 37.362 6.8408 37.782C6.5048 38.202 6.1828 38.552 5.8748 38.832C5.5668 39.084 5.2028 39.21 4.7828 39.21ZM57.3999 37.446C59.5279 37.306 61.5439 37.026 63.4479 36.606C65.3519 36.158 67.0459 35.556 68.5299 34.8C70.0419 34.044 71.2319 33.064 72.0999 31.86C72.9679 30.656 73.4019 29.214 73.4019 27.534C73.4019 26.386 73.1499 25.378 72.6459 24.51C72.1699 23.642 71.4559 22.97 70.5039 22.494C69.5799 21.99 68.4599 21.738 67.1439 21.738C66.1639 21.738 65.1559 21.92 64.1199 22.284C63.1119 22.62 62.1319 23.054 61.1799 23.586C60.2559 24.09 59.4019 24.608 58.6179 25.14C57.8339 25.672 57.1619 26.12 56.6019 26.484C55.4819 27.212 54.6559 27.772 54.1239 28.164C53.6199 28.528 53.1159 28.71 52.6119 28.71C52.2479 28.71 51.8419 28.598 51.3939 28.374C50.9739 28.15 50.5959 27.87 50.2599 27.534C49.9239 27.198 49.6579 26.862 49.4619 26.526C49.3219 26.218 49.2239 25.896 49.1679 25.56C49.1119 25.224 49.0699 24.888 49.0419 24.552L49.5039 24.3C49.8119 24.636 50.1479 24.93 50.5119 25.182C50.8759 25.406 51.2399 25.518 51.6039 25.518C51.9119 25.518 52.2339 25.476 52.5699 25.392C52.9059 25.28 53.4379 25.042 54.1659 24.678C55.2299 24.146 56.4619 23.53 57.8619 22.83C59.2899 22.13 60.7879 21.528 62.3559 21.024C63.9519 20.492 65.5619 20.226 67.1859 20.226C69.1179 20.226 70.7559 20.59 72.0999 21.318C73.4439 22.046 74.4519 22.998 75.1239 24.174C75.8239 25.35 76.1739 26.61 76.1739 27.954C76.1739 29.354 75.9219 30.6 75.4179 31.692C74.9139 32.756 74.2139 33.68 73.3179 34.464C72.4219 35.248 71.4139 35.906 70.2939 36.438C69.2859 36.942 68.0959 37.348 66.7239 37.656C65.3519 37.964 63.8679 38.174 62.2719 38.286C60.7039 38.37 59.1079 38.384 57.4839 38.328L57.3999 37.446ZM106.21 41.562C105.874 41.562 105.58 41.45 105.328 41.226C105.076 41.03 104.88 40.806 104.74 40.554C104.516 40.134 104.264 39.644 103.984 39.084C103.732 38.524 103.312 37.796 102.724 36.9C101.744 35.416 100.442 33.876 98.8178 32.28C97.2218 30.656 95.1638 28.752 92.6438 26.568C92.1118 26.12 91.7058 25.672 91.4258 25.224C91.1458 24.776 91.0058 24.328 91.0058 23.88C91.0058 23.516 91.1038 23.152 91.2998 22.788C91.4958 22.396 91.7618 22.018 92.0978 21.654C92.5178 21.15 93.0778 20.534 93.7778 19.806C94.4778 19.078 95.2338 18.294 96.0458 17.454C96.8858 16.586 97.7118 15.732 98.5238 14.892C99.3358 14.052 100.078 13.282 100.75 12.582C101.422 11.854 101.954 11.252 102.346 10.776C102.71 10.356 102.962 10.02 103.102 9.768C103.242 9.516 103.312 9.264 103.312 9.012C103.312 8.676 103.144 8.298 102.808 7.878C102.5 7.43 101.898 6.912 101.002 6.324L101.506 5.526C102.01 5.638 102.458 5.75 102.85 5.862C103.27 5.974 103.69 6.156 104.11 6.408C104.586 6.66 105.048 7.01 105.496 7.458C105.972 7.878 106.364 8.326 106.672 8.802C106.98 9.25 107.134 9.642 107.134 9.978C107.134 10.258 107.05 10.51 106.882 10.734C106.714 10.93 106.476 11.14 106.168 11.364C105.86 11.588 105.454 11.896 104.95 12.288C104.278 12.848 103.452 13.562 102.472 14.43C101.492 15.27 100.498 16.152 99.4898 17.076C98.4818 17.972 97.5578 18.812 96.7178 19.596C95.9058 20.38 95.2758 20.996 94.8278 21.444C94.2398 22.06 93.8478 22.522 93.6518 22.83C93.4558 23.11 93.3578 23.376 93.3578 23.628C93.3578 23.908 93.4698 24.188 93.6938 24.468C93.9458 24.748 94.3098 25.07 94.7858 25.434C96.2138 26.582 97.5718 27.674 98.8598 28.71C100.176 29.746 101.408 30.81 102.556 31.902C103.704 32.966 104.768 34.128 105.748 35.388C106.336 36.144 106.826 36.914 107.218 37.698C107.61 38.454 107.806 39.14 107.806 39.756C107.806 40.12 107.75 40.428 107.638 40.68C107.526 40.96 107.344 41.17 107.092 41.31C106.868 41.478 106.574 41.562 106.21 41.562ZM133.146 39.714C134.63 39.63 136.086 39.476 137.514 39.252C138.97 39.028 140.174 38.79 141.126 38.538C143.702 37.838 145.718 37.012 147.174 36.06C148.658 35.108 149.694 34.114 150.282 33.078C150.87 32.042 151.164 31.006 151.164 29.97C151.164 28.71 150.87 27.632 150.282 26.736C149.694 25.812 148.896 25.112 147.888 24.636C146.908 24.132 145.816 23.88 144.612 23.88C143.436 23.88 142.246 24.09 141.042 24.51C139.866 24.93 138.704 25.49 137.556 26.19C136.436 26.89 135.372 27.688 134.364 28.584C133.384 29.452 132.474 30.362 131.634 31.314C131.438 31.538 131.242 31.818 131.046 32.154C130.85 32.462 130.64 32.742 130.416 32.994C130.22 33.218 129.982 33.33 129.702 33.33C129.226 33.33 128.75 33.036 128.274 32.448C128.022 32.168 127.812 31.846 127.644 31.482C127.504 31.118 127.434 30.796 127.434 30.516C127.434 30.18 127.49 29.774 127.602 29.298C127.714 28.822 127.798 28.332 127.854 27.828C127.966 26.988 128.106 26.064 128.274 25.056C128.442 24.048 128.624 23.054 128.82 22.074C129.016 21.094 129.156 20.268 129.24 19.596C129.38 18.7 129.436 17.958 129.408 17.37C129.38 16.782 129.366 16.264 129.366 15.816C129.366 15.368 129.478 14.976 129.702 14.64C129.954 14.304 130.416 14.052 131.088 13.884C131.816 13.688 132.684 13.478 133.692 13.254C134.728 13.002 135.736 12.75 136.716 12.498C137.724 12.218 138.494 11.98 139.026 11.784C139.67 11.56 139.684 11.112 139.068 10.44C138.536 9.768 137.724 9.18 136.632 8.676C135.568 8.144 134.378 7.696 133.062 7.332L133.314 6.408C135.274 6.576 136.842 6.898 138.018 7.374C139.194 7.822 140.146 8.298 140.874 8.802C141.798 9.418 142.428 10.048 142.764 10.692C143.1 11.336 143.268 12.022 143.268 12.75C143.268 13.282 143.156 13.688 142.932 13.968C142.708 14.22 142.372 14.346 141.924 14.346C141.56 14.346 141.252 14.318 141 14.262C140.748 14.206 140.454 14.164 140.118 14.136C139.782 14.08 139.306 14.066 138.69 14.094C137.878 14.122 137.052 14.206 136.212 14.346C135.372 14.458 134.602 14.598 133.902 14.766C133.23 14.906 132.712 15.018 132.348 15.102C132.012 15.186 131.774 15.298 131.634 15.438C131.522 15.578 131.466 15.76 131.466 15.984C131.466 16.208 131.55 16.572 131.718 17.076C131.886 17.552 131.97 18 131.97 18.42C131.998 18.924 131.914 19.47 131.718 20.058C131.55 20.646 131.368 21.304 131.172 22.032C130.948 22.984 130.724 23.992 130.5 25.056C130.276 26.12 130.164 27.17 130.164 28.206C130.164 28.682 130.36 28.766 130.752 28.458C131.928 27.478 133.104 26.61 134.28 25.854C135.484 25.098 136.674 24.468 137.85 23.964C139.054 23.46 140.244 23.082 141.42 22.83C142.596 22.55 143.716 22.41 144.78 22.41C146.908 22.41 148.644 22.816 149.988 23.628C151.36 24.412 152.382 25.448 153.054 26.736C153.754 27.996 154.104 29.326 154.104 30.726C154.104 32.238 153.698 33.582 152.886 34.758C152.074 35.906 150.968 36.886 149.568 37.698C148.168 38.51 146.558 39.154 144.738 39.63C142.946 40.134 141.056 40.47 139.068 40.638C137.108 40.834 135.176 40.876 133.272 40.764L133.146 39.714ZM182.42 38.202C185.836 37.586 188.664 36.62 190.904 35.304C193.172 33.96 194.866 32.294 195.986 30.306C197.106 28.29 197.666 26.022 197.666 23.502C197.666 20.982 197.106 18.812 195.986 16.992C194.894 15.172 193.396 13.758 191.492 12.75C189.616 11.742 187.516 11.238 185.192 11.238C183.204 11.238 181.23 11.63 179.27 12.414C177.338 13.17 175.644 14.276 174.188 15.732C172.872 17.02 171.822 18.504 171.038 20.184C170.254 21.836 169.862 23.586 169.862 25.434C169.862 26.75 170.03 27.954 170.366 29.046C170.73 30.11 171.178 30.964 171.71 31.608C172.27 32.224 172.844 32.532 173.432 32.532C174.132 32.532 174.874 32.168 175.658 31.44C176.47 30.712 177.254 29.802 178.01 28.71C178.794 27.59 179.508 26.428 180.152 25.224C180.824 24.02 181.37 22.914 181.79 21.906C182.21 20.898 182.56 19.806 182.84 18.63C183.148 17.454 183.302 16.39 183.302 15.438C183.302 14.598 183.162 13.856 182.882 13.212C182.63 12.54 182.294 11.854 181.874 11.154L183.344 10.86C183.708 11.336 184.058 11.84 184.394 12.372C184.73 12.904 184.996 13.45 185.192 14.01C185.388 14.57 185.486 15.158 185.486 15.774C185.486 16.754 185.374 17.832 185.15 19.008C184.926 20.156 184.604 21.332 184.184 22.536C183.82 23.544 183.344 24.65 182.756 25.854C182.196 27.03 181.538 28.206 180.782 29.382C180.054 30.53 179.27 31.594 178.43 32.574C177.59 33.526 176.722 34.296 175.826 34.884C174.958 35.444 174.104 35.724 173.264 35.724C172.564 35.724 171.864 35.472 171.164 34.968C170.492 34.464 169.876 33.764 169.316 32.868C168.784 31.972 168.35 30.95 168.014 29.802C167.678 28.626 167.51 27.394 167.51 26.106C167.51 24.678 167.72 23.264 168.14 21.864C168.588 20.464 169.232 19.12 170.072 17.832C170.912 16.544 171.92 15.368 173.096 14.304C174.832 12.764 176.75 11.63 178.85 10.902C180.95 10.174 183.12 9.81 185.36 9.81C187.544 9.81 189.56 10.146 191.408 10.818C193.256 11.49 194.866 12.456 196.238 13.716C197.638 14.976 198.73 16.488 199.514 18.252C200.298 20.016 200.69 21.99 200.69 24.174C200.69 25.91 200.382 27.632 199.766 29.34C199.15 31.02 198.142 32.56 196.742 33.96C195.37 35.36 193.522 36.536 191.198 37.488C188.874 38.412 186.004 38.972 182.588 39.168L182.42 38.202ZM244.638 17.958C243.378 17.958 242.286 17.51 241.362 16.614C240.466 15.718 240.018 14.626 240.018 13.338C240.018 12.078 240.466 11 241.362 10.104C242.286 9.18 243.378 8.718 244.638 8.718C245.926 8.718 247.018 9.18 247.914 10.104C248.81 11 249.258 12.078 249.258 13.338C249.258 14.626 248.81 15.718 247.914 16.614C247.018 17.51 245.926 17.958 244.638 17.958ZM212.34 34.548C213.404 33.792 214.552 32.91 215.784 31.902C217.016 30.866 218.206 29.788 219.354 28.668C220.53 27.52 221.594 26.386 222.546 25.266C223.498 24.118 224.254 23.082 224.814 22.158C225.402 21.206 225.696 20.436 225.696 19.848C225.696 19.512 225.528 19.19 225.192 18.882C224.884 18.546 224.506 18.238 224.058 17.958C223.61 17.678 223.204 17.44 222.84 17.244L223.134 16.488C223.47 16.488 223.862 16.502 224.31 16.53C224.758 16.53 225.192 16.6 225.612 16.74C226.06 16.852 226.508 17.076 226.956 17.412C227.432 17.72 227.866 18.098 228.258 18.546C228.65 18.966 228.972 19.386 229.224 19.806C229.476 20.226 229.602 20.59 229.602 20.898C229.602 21.29 229.42 21.626 229.056 21.906C228.692 22.158 228.314 22.522 227.922 22.998C226.97 24.202 225.92 25.392 224.772 26.568C223.624 27.744 222.406 28.878 221.118 29.97C219.83 31.034 218.5 32.028 217.128 32.952C215.756 33.876 214.356 34.688 212.928 35.388L212.34 34.548ZM247.116 33.54C246.584 33.54 246.206 33.33 245.982 32.91C245.758 32.49 245.478 31.86 245.142 31.02C243.966 28.22 242.496 25.686 240.732 23.418C238.996 21.15 236.868 19.036 234.348 17.076L235.02 16.236C236.504 17.048 238.016 18.042 239.556 19.218C241.096 20.366 242.524 21.612 243.84 22.956C245.156 24.3 246.248 25.672 247.116 27.072C247.984 28.444 248.488 29.774 248.628 31.062C248.712 31.566 248.684 32.014 248.544 32.406C248.432 32.77 248.25 33.05 247.998 33.246C247.746 33.414 247.452 33.512 247.116 33.54ZM244.638 16.572C245.534 16.572 246.29 16.264 246.906 15.648C247.55 15.004 247.872 14.234 247.872 13.338C247.872 12.442 247.55 11.686 246.906 11.07C246.29 10.426 245.534 10.104 244.638 10.104C243.742 10.104 242.972 10.426 242.328 11.07C241.712 11.686 241.404 12.442 241.404 13.338C241.404 14.234 241.712 15.004 242.328 15.648C242.972 16.264 243.742 16.572 244.638 16.572ZM270.313 37.992C269.781 37.992 269.165 37.81 268.465 37.446C267.793 37.082 267.163 36.648 266.575 36.144C266.015 35.64 265.595 35.178 265.315 34.758C265.091 34.394 264.895 33.932 264.727 33.372C264.587 32.812 264.489 32.364 264.433 32.028L265.105 31.608C265.525 32.056 265.945 32.49 266.365 32.91C266.813 33.33 267.261 33.68 267.709 33.96C268.157 34.212 268.605 34.338 269.053 34.338C269.585 34.338 270.411 34.058 271.531 33.498C272.679 32.938 274.009 32.154 275.521 31.146C277.033 30.138 278.629 28.976 280.309 27.66C281.989 26.344 283.655 24.944 285.307 23.46C286.987 21.948 288.541 20.408 289.969 18.84C291.425 17.272 292.643 15.746 293.623 14.262L294.589 14.892C292.909 17.86 290.935 20.618 288.667 23.166C286.399 25.686 283.907 28.038 281.191 30.222C278.475 32.406 275.591 34.478 272.539 36.438C272.259 36.606 272.007 36.816 271.783 37.068C271.559 37.32 271.335 37.544 271.111 37.74C270.887 37.908 270.621 37.992 270.313 37.992ZM274.513 19.302C274.177 19.302 273.841 19.176 273.505 18.924C273.197 18.672 272.763 18.21 272.203 17.538C271.699 16.922 271.195 16.362 270.691 15.858C270.215 15.354 269.711 14.864 269.179 14.388C268.647 13.912 268.031 13.422 267.331 12.918C266.631 12.386 265.819 11.812 264.895 11.196L265.399 10.314C266.603 10.65 267.821 11.084 269.053 11.616C270.285 12.12 271.419 12.694 272.455 13.338C273.519 13.954 274.373 14.64 275.017 15.396C275.661 16.152 275.983 16.936 275.983 17.748C275.983 18.224 275.843 18.602 275.563 18.882C275.311 19.162 274.961 19.302 274.513 19.302Z" fill="#2E241B"/>
<path d="M8.54619 62.72H16.7222V63.792H8.54619V62.72ZM7.33019 70.048H19.1542V71.12H7.33019V70.048ZM4.93019 66.288H19.5862V67.376H4.93019V66.288ZM8.13019 60.176H18.8022V61.264H8.13019V60.176ZM16.3542 62.72H17.5382C17.5382 62.72 17.5382 62.7573 17.5382 62.832C17.5382 62.9067 17.5329 62.992 17.5222 63.088C17.5222 63.1733 17.5222 63.248 17.5222 63.312C17.4369 64.9333 17.3515 66.304 17.2662 67.424C17.1809 68.544 17.0849 69.4613 16.9782 70.176C16.8822 70.8907 16.7702 71.4453 16.6422 71.84C16.5249 72.2347 16.3915 72.5227 16.2422 72.704C16.0715 72.9067 15.8902 73.0453 15.6982 73.12C15.5169 73.2053 15.2929 73.264 15.0262 73.296C14.7809 73.3067 14.4555 73.3067 14.0502 73.296C13.6449 73.296 13.2182 73.28 12.7702 73.248C12.7595 73.1093 12.7329 72.9493 12.6902 72.768C12.6475 72.5973 12.5782 72.4427 12.4822 72.304C12.9409 72.3467 13.3515 72.3733 13.7142 72.384C14.0875 72.3947 14.3649 72.4 14.5462 72.4C14.6955 72.4 14.8182 72.384 14.9142 72.352C15.0102 72.32 15.1009 72.256 15.1862 72.16C15.3142 72.0213 15.4315 71.76 15.5382 71.376C15.6555 70.9813 15.7622 70.4267 15.8582 69.712C15.9542 68.9973 16.0449 68.0907 16.1302 66.992C16.2155 65.8827 16.2902 64.544 16.3542 62.976V62.72ZM8.05019 62.72H9.25019C9.15419 63.4667 9.04219 64.2667 8.91419 65.12C8.78619 65.9627 8.65285 66.8107 8.51419 67.664C8.37552 68.5173 8.24219 69.328 8.11419 70.096C7.98619 70.8533 7.86352 71.5253 7.74619 72.112L6.53019 72.032C6.65819 71.4347 6.79152 70.7573 6.93019 70C7.06885 69.232 7.20752 68.4267 7.34619 67.584C7.48485 66.7413 7.61285 65.904 7.73019 65.072C7.85819 64.2293 7.96485 63.4453 8.05019 62.72ZM12.0982 63.248H13.2342C13.1702 63.8347 13.1009 64.4693 13.0262 65.152C12.9622 65.824 12.8875 66.496 12.8022 67.168C12.7169 67.84 12.6315 68.48 12.5462 69.088C12.4715 69.696 12.3969 70.224 12.3222 70.672H11.2022C11.2875 70.2133 11.3729 69.68 11.4582 69.072C11.5435 68.4533 11.6235 67.808 11.6982 67.136C11.7835 66.4533 11.8582 65.7813 11.9222 65.12C11.9969 64.448 12.0555 63.824 12.0982 63.248ZM8.73819 58.56L10.0182 58.768C9.75152 59.3547 9.43685 59.9573 9.07419 60.576C8.72219 61.1947 8.31152 61.8027 7.84219 62.4C7.37285 62.9867 6.84485 63.5467 6.25819 64.08C6.18352 63.984 6.08752 63.8933 5.97019 63.808C5.85285 63.712 5.73019 63.6213 5.60219 63.536C5.48485 63.4507 5.37285 63.3867 5.26619 63.344C5.83152 62.8747 6.33819 62.368 6.78619 61.824C7.23419 61.2693 7.61819 60.7093 7.93819 60.144C8.26885 59.5787 8.53552 59.0507 8.73819 58.56ZM23.0582 59.648H33.5542V73.024H32.2742V60.848H24.2902V73.104H23.0582V59.648ZM23.8902 65.184H32.8182V66.368H23.8902V65.184ZM23.8582 70.864H32.8342V72.064H23.8582V70.864ZM42.0822 64.112H51.5702V65.152H42.0822V64.112ZM42.7062 60.24H50.9782V61.28H42.7062V60.24ZM42.0982 67.152H51.5542V68.192H42.0982V67.152ZM46.2102 58.56H47.3622V63.12H46.2102V58.56ZM43.9542 62.192H45.0582V67.488H43.9542V62.192ZM48.5302 62.192H49.6662V67.488H48.5302V62.192ZM47.5222 67.984H48.6582V71.728C48.6582 71.92 48.6849 72.0373 48.7382 72.08C48.8022 72.1333 48.9249 72.16 49.1062 72.16C49.1595 72.16 49.2715 72.16 49.4422 72.16C49.6129 72.16 49.7835 72.16 49.9542 72.16C50.1249 72.16 50.2475 72.16 50.3222 72.16C50.4395 72.16 50.5249 72.1173 50.5782 72.032C50.6422 71.9573 50.6849 71.7973 50.7062 71.552C50.7382 71.296 50.7595 70.912 50.7702 70.4C50.8555 70.464 50.9569 70.5227 51.0742 70.576C51.1915 70.6293 51.3142 70.6773 51.4422 70.72C51.5702 70.7627 51.6822 70.8 51.7782 70.832C51.7462 71.4507 51.6822 71.9307 51.5862 72.272C51.4902 72.6133 51.3515 72.848 51.1702 72.976C50.9889 73.1147 50.7489 73.184 50.4502 73.184C50.3862 73.184 50.2849 73.184 50.1462 73.184C50.0075 73.184 49.8529 73.184 49.6822 73.184C49.5222 73.184 49.3729 73.184 49.2342 73.184C49.0955 73.184 48.9995 73.184 48.9462 73.184C48.5622 73.184 48.2635 73.136 48.0502 73.04C47.8475 72.9547 47.7089 72.8053 47.6342 72.592C47.5595 72.3893 47.5222 72.1013 47.5222 71.728V67.984ZM39.2662 58.704H40.3542V64.16C40.3542 64.9707 40.3222 65.7813 40.2582 66.592C40.2049 67.4027 40.0875 68.2027 39.9062 68.992C39.7249 69.7707 39.4529 70.5227 39.0902 71.248C38.7275 71.9733 38.2369 72.656 37.6182 73.296C37.5542 73.2107 37.4742 73.1147 37.3782 73.008C37.2929 72.912 37.1969 72.8107 37.0902 72.704C36.9835 72.608 36.8875 72.528 36.8022 72.464C37.5489 71.6853 38.0929 70.8427 38.4342 69.936C38.7755 69.0187 38.9995 68.0693 39.1062 67.088C39.2129 66.1067 39.2662 65.1253 39.2662 64.144V58.704ZM37.7142 61.856L38.5622 61.968C38.5515 62.4693 38.5142 62.9813 38.4502 63.504C38.3969 64.016 38.3009 64.5013 38.1622 64.96C38.0235 65.408 37.8369 65.8027 37.6022 66.144L36.7862 65.728C36.9995 65.44 37.1702 65.088 37.2982 64.672C37.4369 64.256 37.5382 63.8027 37.6022 63.312C37.6769 62.8213 37.7142 62.336 37.7142 61.856ZM41.6982 61.264L42.6902 61.664C42.4769 62.208 42.2422 62.784 41.9862 63.392C41.7302 64 41.4902 64.5173 41.2662 64.944L40.5302 64.608C40.6582 64.3093 40.7969 63.9627 40.9462 63.568C41.0955 63.1733 41.2342 62.7733 41.3622 62.368C41.5009 61.9627 41.6129 61.5947 41.6982 61.264ZM40.0342 67.568C40.1515 67.6853 40.3169 67.872 40.5302 68.128C40.7542 68.384 40.9942 68.6667 41.2502 68.976C41.5062 69.2747 41.7409 69.552 41.9542 69.808C42.1782 70.064 42.3329 70.2507 42.4182 70.368L41.6022 71.232C41.4849 71.04 41.3249 70.8053 41.1222 70.528C40.9195 70.24 40.7009 69.9467 40.4662 69.648C40.2315 69.3387 40.0075 69.0507 39.7942 68.784C39.5809 68.5173 39.4102 68.304 39.2822 68.144L40.0342 67.568ZM44.5942 67.968H45.7302C45.6875 68.672 45.6022 69.3067 45.4742 69.872C45.3569 70.4267 45.1649 70.9173 44.8982 71.344C44.6315 71.7707 44.2689 72.1387 43.8102 72.448C43.3622 72.768 42.7755 73.0347 42.0502 73.248C41.9969 73.1093 41.9009 72.9493 41.7622 72.768C41.6342 72.5973 41.5169 72.4587 41.4102 72.352C42.2529 72.1173 42.8929 71.8133 43.3302 71.44C43.7675 71.056 44.0715 70.5813 44.2422 70.016C44.4235 69.4507 44.5409 68.768 44.5942 67.968ZM55.1062 61.04C56.2262 61.168 57.2929 61.2427 58.3062 61.264C59.3302 61.2853 60.2529 61.2587 61.0742 61.184C61.7249 61.12 62.3702 61.024 63.0102 60.896C63.6609 60.7573 64.2742 60.5973 64.8502 60.416L65.0262 61.568C64.5035 61.7173 63.9169 61.856 63.2662 61.984C62.6262 62.112 61.9862 62.208 61.3462 62.272C60.5355 62.3467 59.5915 62.384 58.5142 62.384C57.4475 62.3733 56.3382 62.3147 55.1862 62.208L55.1062 61.04ZM54.8022 64.32C55.7089 64.416 56.6049 64.48 57.4902 64.512C58.3755 64.5333 59.2129 64.528 60.0022 64.496C60.7915 64.464 61.4955 64.4107 62.1142 64.336C62.8822 64.2507 63.5809 64.1387 64.2102 64C64.8395 63.8613 65.3675 63.7227 65.7942 63.584L65.9862 64.784C65.5489 64.9013 65.0369 65.0187 64.4502 65.136C63.8635 65.2427 63.2342 65.3387 62.5622 65.424C61.9009 65.4987 61.1489 65.5573 60.3062 65.6C59.4635 65.632 58.5729 65.6427 57.6342 65.632C56.7062 65.6107 55.7835 65.5733 54.8662 65.52L54.8022 64.32ZM60.2742 60.832C60.2102 60.5867 60.1355 60.3467 60.0502 60.112C59.9755 59.8667 59.9009 59.632 59.8262 59.408L61.1862 59.232C61.2395 59.68 61.3249 60.1493 61.4422 60.64C61.5595 61.12 61.6875 61.5947 61.8262 62.064C61.9649 62.5227 62.0982 62.9387 62.2262 63.312C62.3755 63.728 62.5515 64.1707 62.7542 64.64C62.9569 65.1093 63.1809 65.5733 63.4262 66.032C63.6715 66.4907 63.9329 66.928 64.2102 67.344C64.2955 67.4613 64.3862 67.5787 64.4822 67.696C64.5889 67.8027 64.6955 67.9147 64.8022 68.032L64.1462 69.008C63.8475 68.9227 63.4955 68.8533 63.0902 68.8C62.6849 68.736 62.2689 68.6827 61.8422 68.64C61.4155 68.5867 61.0155 68.5387 60.6422 68.496L60.7542 67.52C61.1809 67.5627 61.6235 67.6107 62.0822 67.664C62.5409 67.7173 62.8982 67.76 63.1542 67.792C62.7062 67.0987 62.3115 66.384 61.9702 65.648C61.6395 64.912 61.3569 64.2187 61.1222 63.568C60.9942 63.2053 60.8769 62.8693 60.7702 62.56C60.6742 62.24 60.5835 61.936 60.4982 61.648C60.4235 61.36 60.3489 61.088 60.2742 60.832ZM57.1222 67.76C56.9302 68.0373 56.7702 68.32 56.6422 68.608C56.5142 68.896 56.4502 69.216 56.4502 69.568C56.4502 70.2293 56.7489 70.7253 57.3462 71.056C57.9542 71.3867 58.8875 71.552 60.1462 71.552C60.8929 71.552 61.5702 71.5253 62.1782 71.472C62.7862 71.4187 63.3782 71.3333 63.9542 71.216L63.9062 72.496C63.3515 72.5813 62.7595 72.6453 62.1302 72.688C61.5009 72.7413 60.8449 72.768 60.1622 72.768C59.1169 72.768 58.2262 72.6613 57.4902 72.448C56.7649 72.2347 56.2102 71.9093 55.8262 71.472C55.4529 71.0347 55.2609 70.4747 55.2502 69.792C55.2395 69.3333 55.2929 68.928 55.4102 68.576C55.5382 68.2133 55.6929 67.856 55.8742 67.504L57.1222 67.76ZM69.6182 61.712H82.9782V62.896H69.6182V61.712ZM69.0742 71.392H83.4262V72.576H69.0742V71.392ZM75.5862 58.56H76.8342V62.368H75.5862V58.56ZM79.3942 63.632L80.7702 63.888C80.5995 64.5387 80.4129 65.2267 80.2102 65.952C80.0075 66.6667 79.7995 67.3813 79.5862 68.096C79.3729 68.8 79.1542 69.472 78.9302 70.112C78.7169 70.752 78.5089 71.328 78.3062 71.84L77.1542 71.552C77.3569 71.04 77.5649 70.4587 77.7782 69.808C77.9915 69.1467 78.1942 68.4587 78.3862 67.744C78.5889 67.0187 78.7755 66.304 78.9462 65.6C79.1275 64.896 79.2769 64.24 79.3942 63.632ZM71.7622 64.016L72.8982 63.728C73.1862 64.432 73.4369 65.1787 73.6502 65.968C73.8742 66.7573 74.0555 67.5253 74.1942 68.272C74.3435 69.0187 74.4395 69.6907 74.4822 70.288L73.2502 70.592C73.2289 70.0053 73.1489 69.3333 73.0102 68.576C72.8715 67.8187 72.6955 67.0453 72.4822 66.256C72.2689 65.456 72.0289 64.7093 71.7622 64.016ZM85.6022 61.376C85.9115 61.3653 86.1889 61.3547 86.4342 61.344C86.6795 61.3227 86.8769 61.3067 87.0262 61.296C87.2822 61.264 87.6502 61.2267 88.1302 61.184C88.6209 61.1307 89.1809 61.0773 89.8102 61.024C90.4395 60.96 91.1169 60.896 91.8422 60.832C92.5675 60.768 93.2982 60.704 94.0342 60.64C94.6209 60.5867 95.1755 60.544 95.6982 60.512C96.2209 60.4693 96.7062 60.4373 97.1542 60.416C97.6022 60.384 98.0022 60.3627 98.3542 60.352V61.632C98.0555 61.6213 97.7142 61.6213 97.3302 61.632C96.9462 61.6427 96.5675 61.6693 96.1942 61.712C95.8209 61.744 95.4955 61.8027 95.2182 61.888C94.6529 62.0693 94.1409 62.3467 93.6822 62.72C93.2342 63.0827 92.8502 63.504 92.5302 63.984C92.2102 64.4533 91.9649 64.9493 91.7942 65.472C91.6342 65.984 91.5542 66.4747 91.5542 66.944C91.5542 67.5733 91.6609 68.1227 91.8742 68.592C92.0875 69.0507 92.3755 69.44 92.7382 69.76C93.1115 70.08 93.5329 70.3413 94.0022 70.544C94.4822 70.7467 94.9835 70.896 95.5062 70.992C96.0289 71.088 96.5515 71.1467 97.0742 71.168L96.6102 72.496C96.0235 72.4747 95.4262 72.3893 94.8182 72.24C94.2209 72.1013 93.6502 71.8987 93.1062 71.632C92.5622 71.3547 92.0769 71.008 91.6502 70.592C91.2235 70.176 90.8875 69.6907 90.6422 69.136C90.3969 68.5813 90.2742 67.9467 90.2742 67.232C90.2742 66.4 90.4182 65.632 90.7062 64.928C91.0049 64.2133 91.3835 63.5893 91.8422 63.056C92.3009 62.5227 92.7755 62.112 93.2662 61.824C92.9249 61.8667 92.5035 61.9147 92.0022 61.968C91.5009 62.0213 90.9569 62.08 90.3702 62.144C89.7942 62.1973 89.2182 62.2613 88.6422 62.336C88.0662 62.4107 87.5222 62.4853 87.0102 62.56C86.5089 62.624 86.0875 62.6933 85.7462 62.768L85.6022 61.376ZM109.266 61.072C109.16 61.904 109.021 62.7733 108.85 63.68C108.69 64.5867 108.482 65.4667 108.226 66.32C107.906 67.4187 107.549 68.336 107.154 69.072C106.77 69.808 106.354 70.3627 105.906 70.736C105.458 71.1093 104.989 71.296 104.498 71.296C104.029 71.296 103.576 71.1253 103.138 70.784C102.701 70.4427 102.344 69.952 102.066 69.312C101.789 68.6613 101.65 67.8987 101.65 67.024C101.65 66.1493 101.826 65.3227 102.178 64.544C102.541 63.7653 103.037 63.0773 103.666 62.48C104.306 61.872 105.053 61.392 105.906 61.04C106.76 60.688 107.672 60.512 108.642 60.512C109.581 60.512 110.424 60.6667 111.17 60.976C111.928 61.2853 112.573 61.712 113.106 62.256C113.64 62.7893 114.05 63.4133 114.338 64.128C114.626 64.832 114.77 65.5893 114.77 66.4C114.77 67.52 114.53 68.5067 114.05 69.36C113.581 70.2133 112.898 70.9067 112.002 71.44C111.117 71.9733 110.04 72.3253 108.77 72.496L108.018 71.312C108.274 71.28 108.52 71.248 108.754 71.216C108.989 71.184 109.202 71.1467 109.394 71.104C109.906 70.9867 110.402 70.8053 110.882 70.56C111.373 70.304 111.81 69.984 112.194 69.6C112.578 69.2053 112.882 68.7413 113.106 68.208C113.341 67.664 113.458 67.0453 113.458 66.352C113.458 65.7013 113.352 65.0987 113.138 64.544C112.925 63.9787 112.61 63.4827 112.194 63.056C111.778 62.6293 111.272 62.2933 110.674 62.048C110.077 61.8027 109.394 61.68 108.626 61.68C107.752 61.68 106.957 61.84 106.242 62.16C105.538 62.48 104.936 62.9013 104.434 63.424C103.944 63.936 103.565 64.5013 103.298 65.12C103.032 65.728 102.898 66.3253 102.898 66.912C102.898 67.584 102.984 68.1387 103.154 68.576C103.336 69.0027 103.549 69.3173 103.794 69.52C104.05 69.7227 104.301 69.824 104.546 69.824C104.802 69.824 105.064 69.7013 105.33 69.456C105.597 69.2 105.869 68.7947 106.146 68.24C106.424 67.6747 106.696 66.944 106.962 66.048C107.197 65.28 107.394 64.464 107.554 63.6C107.725 62.736 107.848 61.888 107.922 61.056L109.266 61.072ZM118.706 60.272H129.826V61.344H118.706V60.272ZM117.026 63.152H131.506V64.224H117.026V63.152ZM117.458 66.544H131.026V67.616H117.458V66.544ZM118.322 69.488H130.274V70.544H118.322V69.488ZM123.57 58.576H124.818V63.616H123.57V58.576ZM123.57 67.472H124.818V73.296H123.57V67.472ZM120.082 64.416L121.154 64.112C121.389 64.464 121.608 64.8587 121.81 65.296C122.024 65.7333 122.173 66.1067 122.258 66.416L121.138 66.784C121.053 66.464 120.909 66.0853 120.706 65.648C120.514 65.2 120.306 64.7893 120.082 64.416ZM127.266 63.984L128.594 64.32C128.349 64.7573 128.088 65.2 127.81 65.648C127.544 66.096 127.293 66.4853 127.058 66.816L126.05 66.496C126.189 66.2613 126.333 66 126.482 65.712C126.642 65.4133 126.792 65.1147 126.93 64.816C127.069 64.5067 127.181 64.2293 127.266 63.984ZM144.082 59.664C144.072 59.7493 144.061 59.8613 144.05 60C144.04 60.1387 144.029 60.2827 144.018 60.432C144.018 60.5707 144.013 60.6987 144.002 60.816C144.002 61.1467 143.997 61.488 143.986 61.84C143.986 62.192 143.981 62.5333 143.97 62.864C143.97 63.184 143.965 63.4827 143.954 63.76C143.944 64.1653 143.928 64.6133 143.906 65.104C143.896 65.584 143.874 66.0427 143.842 66.48C143.821 66.9173 143.778 67.2747 143.714 67.552C143.64 67.904 143.506 68.144 143.314 68.272C143.133 68.4 142.856 68.464 142.482 68.464C142.29 68.464 142.056 68.4533 141.778 68.432C141.501 68.4 141.234 68.368 140.978 68.336C140.722 68.304 140.52 68.272 140.37 68.24L140.402 67.136C140.68 67.2 140.968 67.2533 141.266 67.296C141.576 67.328 141.821 67.344 142.002 67.344C142.205 67.344 142.349 67.3173 142.434 67.264C142.53 67.2107 142.589 67.0933 142.61 66.912C142.653 66.6987 142.685 66.4213 142.706 66.08C142.728 65.728 142.744 65.3493 142.754 64.944C142.776 64.528 142.792 64.1333 142.802 63.76C142.802 63.4613 142.802 63.1467 142.802 62.816C142.802 62.4747 142.802 62.1387 142.802 61.808C142.802 61.4667 142.802 61.152 142.802 60.864C142.802 60.7467 142.797 60.6133 142.786 60.464C142.786 60.3147 142.781 60.1707 142.77 60.032C142.76 59.8827 142.744 59.76 142.722 59.664H144.082ZM137.746 60.16C137.725 60.352 137.709 60.5547 137.698 60.768C137.688 60.9813 137.682 61.2107 137.682 61.456C137.682 61.7973 137.677 62.2347 137.666 62.768C137.666 63.2907 137.661 63.8507 137.65 64.448C137.65 65.0347 137.65 65.6107 137.65 66.176C137.65 66.7413 137.65 67.248 137.65 67.696C137.65 68.144 137.656 68.48 137.666 68.704C137.688 69.1307 137.714 69.4933 137.746 69.792C137.789 70.0907 137.896 70.3307 138.066 70.512C138.237 70.6933 138.514 70.8267 138.898 70.912C139.282 70.9973 139.821 71.04 140.514 71.04C141.09 71.04 141.677 71.024 142.274 70.992C142.872 70.9493 143.432 70.9013 143.954 70.848C144.488 70.784 144.925 70.72 145.266 70.656L145.218 72.016C144.866 72.048 144.429 72.0853 143.906 72.128C143.384 72.1707 142.834 72.2027 142.258 72.224C141.682 72.256 141.122 72.272 140.578 72.272C139.65 72.272 138.914 72.2133 138.37 72.096C137.826 71.9787 137.421 71.792 137.154 71.536C136.888 71.2693 136.706 70.9173 136.61 70.48C136.525 70.0427 136.472 69.5093 136.45 68.88C136.45 68.656 136.445 68.3413 136.434 67.936C136.434 67.52 136.434 67.056 136.434 66.544C136.434 66.0213 136.434 65.4933 136.434 64.96C136.434 64.4267 136.434 63.92 136.434 63.44C136.445 62.96 136.45 62.5493 136.45 62.208C136.45 61.8667 136.45 61.6373 136.45 61.52C136.45 61.2747 136.44 61.0507 136.418 60.848C136.408 60.6347 136.386 60.4053 136.354 60.16H137.746ZM132.962 64C133.218 64 133.485 63.9893 133.762 63.968C134.05 63.9467 134.338 63.9253 134.626 63.904C134.978 63.872 135.48 63.824 136.13 63.76C136.781 63.696 137.517 63.6267 138.338 63.552C139.17 63.4773 140.029 63.4027 140.914 63.328C141.8 63.2427 142.658 63.168 143.49 63.104C144.333 63.0293 145.085 62.976 145.746 62.944C145.949 62.9227 146.157 62.9067 146.37 62.896C146.594 62.8853 146.802 62.8747 146.994 62.864V64.112C146.909 64.1013 146.792 64.1013 146.642 64.112C146.504 64.112 146.349 64.112 146.178 64.112C146.018 64.112 145.869 64.112 145.73 64.112C145.304 64.1227 144.786 64.1493 144.178 64.192C143.57 64.224 142.909 64.272 142.194 64.336C141.49 64.3893 140.77 64.4533 140.034 64.528C139.298 64.592 138.589 64.6613 137.906 64.736C137.224 64.8107 136.605 64.88 136.05 64.944C135.506 64.9973 135.064 65.0453 134.722 65.088C134.562 65.1093 134.381 65.136 134.178 65.168C133.986 65.1893 133.794 65.216 133.602 65.248C133.41 65.2693 133.245 65.2907 133.106 65.312L132.962 64ZM155.602 59.344C155.538 59.664 155.453 60.0427 155.346 60.48C155.25 60.9067 155.09 61.392 154.866 61.936C154.674 62.416 154.434 62.912 154.146 63.424C153.869 63.936 153.57 64.4 153.25 64.816C153.453 64.688 153.682 64.5813 153.938 64.496C154.194 64.4 154.456 64.3307 154.722 64.288C155 64.2453 155.25 64.224 155.474 64.224C156.093 64.224 156.616 64.4 157.042 64.752C157.469 65.0933 157.682 65.5947 157.682 66.256C157.682 66.4587 157.682 66.72 157.682 67.04C157.682 67.3493 157.682 67.68 157.682 68.032C157.693 68.3733 157.704 68.7093 157.714 69.04C157.725 69.3707 157.73 69.6587 157.73 69.904H156.498C156.509 69.6907 156.52 69.44 156.53 69.152C156.541 68.864 156.546 68.56 156.546 68.24C156.557 67.92 156.557 67.616 156.546 67.328C156.546 67.04 156.546 66.7947 156.546 66.592C156.546 66.1227 156.402 65.7813 156.114 65.568C155.837 65.344 155.485 65.232 155.058 65.232C154.557 65.232 154.061 65.344 153.57 65.568C153.09 65.7813 152.669 66.0587 152.306 66.4C152.072 66.624 151.837 66.88 151.602 67.168C151.378 67.4453 151.128 67.744 150.85 68.064L149.762 67.264C150.53 66.5173 151.17 65.8187 151.682 65.168C152.194 64.5173 152.61 63.9147 152.93 63.36C153.25 62.7947 153.501 62.288 153.682 61.84C153.853 61.392 153.992 60.944 154.098 60.496C154.205 60.0373 154.269 59.616 154.29 59.232L155.602 59.344ZM150.13 61.072C150.557 61.1253 151.021 61.168 151.522 61.2C152.024 61.232 152.461 61.248 152.834 61.248C153.549 61.248 154.317 61.232 155.138 61.2C155.96 61.1573 156.786 61.0987 157.618 61.024C158.461 60.9493 159.261 60.8427 160.018 60.704L160.002 61.888C159.448 61.984 158.856 62.064 158.226 62.128C157.597 62.1813 156.957 62.2293 156.306 62.272C155.656 62.304 155.026 62.3307 154.418 62.352C153.821 62.3627 153.266 62.368 152.754 62.368C152.53 62.368 152.269 62.368 151.97 62.368C151.682 62.3573 151.378 62.3467 151.058 62.336C150.738 62.3147 150.429 62.2933 150.13 62.272V61.072ZM162.354 64.944C162.216 64.976 162.061 65.024 161.89 65.088C161.73 65.1413 161.565 65.2 161.394 65.264C161.234 65.328 161.08 65.392 160.93 65.456C160.376 65.6693 159.73 65.9307 158.994 66.24C158.258 66.5493 157.506 66.9067 156.738 67.312C156.205 67.5787 155.736 67.8613 155.33 68.16C154.925 68.448 154.605 68.752 154.37 69.072C154.136 69.3813 154.018 69.7227 154.018 70.096C154.018 70.4053 154.088 70.656 154.226 70.848C154.376 71.04 154.584 71.1893 154.85 71.296C155.117 71.392 155.421 71.456 155.762 71.488C156.114 71.52 156.498 71.536 156.914 71.536C157.533 71.536 158.237 71.504 159.026 71.44C159.826 71.3653 160.578 71.2693 161.282 71.152L161.25 72.432C160.845 72.4853 160.386 72.5333 159.874 72.576C159.373 72.6187 158.861 72.6507 158.338 72.672C157.826 72.704 157.336 72.72 156.866 72.72C156.109 72.72 155.416 72.6507 154.786 72.512C154.168 72.3733 153.672 72.128 153.298 71.776C152.925 71.424 152.738 70.9227 152.738 70.272C152.738 69.792 152.85 69.3547 153.074 68.96C153.298 68.5547 153.597 68.1867 153.97 67.856C154.354 67.5253 154.776 67.2213 155.234 66.944C155.693 66.656 156.162 66.3947 156.642 66.16C157.154 65.8827 157.634 65.6427 158.082 65.44C158.541 65.2373 158.973 65.0507 159.378 64.88C159.784 64.7093 160.162 64.5387 160.514 64.368C160.749 64.2613 160.973 64.16 161.186 64.064C161.4 63.968 161.613 63.8613 161.826 63.744L162.354 64.944ZM170.818 59.216C170.797 59.312 170.781 59.424 170.77 59.552C170.76 59.6693 170.749 59.7973 170.738 59.936C170.728 60.0747 170.717 60.2027 170.706 60.32C170.696 60.5653 170.68 60.8853 170.658 61.28C170.648 61.6747 170.637 62.112 170.626 62.592C170.616 63.0613 170.605 63.5413 170.594 64.032C170.584 64.512 170.578 64.96 170.578 65.376C170.578 65.792 170.578 66.2507 170.578 66.752C170.589 67.2427 170.6 67.7333 170.61 68.224C170.632 68.704 170.642 69.152 170.642 69.568C170.653 69.9733 170.658 70.2987 170.658 70.544C170.658 71.0347 170.6 71.424 170.482 71.712C170.365 72 170.2 72.2027 169.986 72.32C169.784 72.448 169.538 72.512 169.25 72.512C168.941 72.512 168.594 72.4373 168.21 72.288C167.826 72.1493 167.458 71.9573 167.106 71.712C166.765 71.4667 166.482 71.184 166.258 70.864C166.034 70.544 165.922 70.208 165.922 69.856C165.922 69.376 166.104 68.9067 166.466 68.448C166.84 67.9893 167.32 67.5627 167.906 67.168C168.504 66.7733 169.133 66.4533 169.794 66.208C170.52 65.92 171.261 65.7067 172.018 65.568C172.776 65.4187 173.469 65.344 174.098 65.344C174.877 65.344 175.565 65.4773 176.162 65.744C176.77 66.0107 177.245 66.384 177.586 66.864C177.938 67.3333 178.114 67.888 178.114 68.528C178.114 69.168 177.981 69.7333 177.714 70.224C177.458 70.7147 177.074 71.1253 176.562 71.456C176.061 71.7867 175.442 72.0427 174.706 72.224C174.354 72.2987 174.002 72.3467 173.65 72.368C173.309 72.4 173 72.4267 172.722 72.448L172.274 71.152C172.573 71.1627 172.882 71.1627 173.202 71.152C173.533 71.1413 173.848 71.104 174.146 71.04C174.616 70.9547 175.053 70.8107 175.458 70.608C175.874 70.3947 176.205 70.1173 176.45 69.776C176.706 69.4347 176.834 69.024 176.834 68.544C176.834 68.0853 176.712 67.7013 176.466 67.392C176.221 67.0827 175.89 66.848 175.474 66.688C175.058 66.528 174.594 66.448 174.082 66.448C173.378 66.448 172.69 66.5227 172.018 66.672C171.346 66.8213 170.664 67.0347 169.97 67.312C169.458 67.504 168.989 67.744 168.562 68.032C168.136 68.3093 167.794 68.6027 167.538 68.912C167.293 69.2213 167.17 69.5147 167.17 69.792C167.17 69.9733 167.229 70.1493 167.346 70.32C167.474 70.48 167.629 70.624 167.81 70.752C167.992 70.88 168.184 70.9813 168.386 71.056C168.589 71.12 168.765 71.152 168.914 71.152C169.096 71.152 169.234 71.088 169.33 70.96C169.437 70.832 169.49 70.6347 169.49 70.368C169.49 70.0587 169.485 69.632 169.474 69.088C169.464 68.5333 169.453 67.936 169.442 67.296C169.432 66.6453 169.426 66.0267 169.426 65.44C169.426 64.9813 169.426 64.4907 169.426 63.968C169.437 63.4453 169.442 62.9387 169.442 62.448C169.453 61.9573 169.458 61.5253 169.458 61.152C169.469 60.7787 169.474 60.512 169.474 60.352C169.474 60.2453 169.469 60.1227 169.458 59.984C169.458 59.8347 169.453 59.6907 169.442 59.552C169.432 59.4133 169.416 59.3013 169.394 59.216H170.818ZM175.778 60.992C176.162 61.1947 176.589 61.44 177.058 61.728C177.528 62.0053 177.976 62.288 178.402 62.576C178.84 62.864 179.186 63.1147 179.442 63.328L178.786 64.352C178.594 64.16 178.349 63.9573 178.05 63.744C177.752 63.52 177.432 63.3013 177.09 63.088C176.749 62.864 176.413 62.656 176.082 62.464C175.752 62.2613 175.458 62.0907 175.202 61.952L175.778 60.992ZM166.178 62.096C166.616 62.1493 166.989 62.1867 167.298 62.208C167.618 62.2187 167.928 62.224 168.226 62.224C168.621 62.224 169.064 62.2027 169.554 62.16C170.045 62.1173 170.552 62.064 171.074 62C171.597 61.9253 172.104 61.84 172.594 61.744C173.096 61.6373 173.544 61.5253 173.938 61.408L173.97 62.656C173.554 62.752 173.09 62.848 172.578 62.944C172.066 63.0293 171.544 63.104 171.01 63.168C170.488 63.232 169.986 63.2853 169.506 63.328C169.026 63.3707 168.61 63.392 168.258 63.392C167.8 63.392 167.41 63.3867 167.09 63.376C166.781 63.3653 166.488 63.344 166.21 63.312L166.178 62.096ZM182.514 59.36H183.714V64.032C183.714 64.704 183.693 65.44 183.65 66.24C183.608 67.04 183.522 67.856 183.394 68.688C183.266 69.52 183.074 70.3307 182.818 71.12C182.573 71.8987 182.237 72.6133 181.81 73.264C181.746 73.2 181.645 73.1253 181.506 73.04C181.378 72.9653 181.245 72.8907 181.106 72.816C180.978 72.7413 180.861 72.688 180.754 72.656C181.16 72.0267 181.48 71.344 181.714 70.608C181.949 69.872 182.12 69.12 182.226 68.352C182.344 67.584 182.418 66.832 182.45 66.096C182.493 65.36 182.514 64.672 182.514 64.032V59.36ZM183.234 59.36H194.37V63.616H183.234V62.512H193.154V60.464H183.234V59.36ZM185.282 68.576H193.986V69.568H185.282V68.576ZM185.282 71.616H193.986V72.688H185.282V71.616ZM188.962 63.76H190.13V72.176H188.962V63.76ZM184.722 65.584H194.546V73.264H193.378V66.656H185.858V73.264H184.722V65.584ZM208.418 59.52C208.397 59.6587 208.381 59.808 208.37 59.968C208.37 60.1173 208.37 60.2827 208.37 60.464C208.36 60.5813 208.354 60.7733 208.354 61.04C208.365 61.3067 208.37 61.6107 208.37 61.952C208.381 62.2827 208.386 62.624 208.386 62.976C208.397 63.328 208.402 63.6533 208.402 63.952C208.402 64.24 208.402 64.4747 208.402 64.656C208.402 65.5733 208.381 66.4267 208.338 67.216C208.306 68.0053 208.189 68.7413 207.986 69.424C207.784 70.1067 207.448 70.7413 206.978 71.328C206.52 71.904 205.864 72.4427 205.01 72.944L203.842 72.032C204.098 71.9253 204.37 71.7813 204.658 71.6C204.957 71.4187 205.202 71.232 205.394 71.04C205.821 70.6667 206.157 70.2667 206.402 69.84C206.648 69.4133 206.824 68.944 206.93 68.432C207.048 67.92 207.122 67.3547 207.154 66.736C207.186 66.1173 207.202 65.424 207.202 64.656C207.202 64.4 207.197 64.0747 207.186 63.68C207.176 63.2747 207.165 62.8587 207.154 62.432C207.144 61.9947 207.133 61.6 207.122 61.248C207.112 60.896 207.096 60.64 207.074 60.48C207.064 60.2987 207.042 60.128 207.01 59.968C206.978 59.7973 206.952 59.648 206.93 59.52H208.418ZM202.578 62.832C202.813 62.864 203.074 62.896 203.362 62.928C203.65 62.96 203.949 62.9813 204.258 62.992C204.578 63.0027 204.877 63.008 205.154 63.008C205.816 63.008 206.493 62.992 207.186 62.96C207.89 62.928 208.568 62.8747 209.218 62.8C209.88 62.7253 210.472 62.6293 210.994 62.512V63.824C210.482 63.8987 209.901 63.968 209.25 64.032C208.61 64.096 207.938 64.144 207.234 64.176C206.541 64.1973 205.853 64.208 205.17 64.208C204.914 64.208 204.626 64.2027 204.306 64.192C203.997 64.1813 203.688 64.1707 203.378 64.16C203.08 64.1493 202.813 64.1333 202.578 64.112V62.832ZM200.322 59.76C200.28 59.9093 200.232 60.0853 200.178 60.288C200.136 60.48 200.093 60.6507 200.05 60.8C199.922 61.376 199.8 62.016 199.682 62.72C199.565 63.424 199.474 64.1547 199.41 64.912C199.346 65.6693 199.325 66.416 199.346 67.152C199.368 67.888 199.453 68.5867 199.602 69.248C199.72 68.9067 199.853 68.512 200.002 68.064C200.162 67.616 200.317 67.1947 200.466 66.8L201.154 67.216C201.026 67.5787 200.893 67.9893 200.754 68.448C200.616 68.896 200.488 69.328 200.37 69.744C200.253 70.1493 200.168 70.4853 200.114 70.752C200.082 70.8693 200.056 70.9973 200.034 71.136C200.024 71.2747 200.024 71.3867 200.034 71.472C200.045 71.5573 200.05 71.648 200.05 71.744C200.061 71.84 200.072 71.9307 200.082 72.016L198.994 72.144C198.888 71.824 198.765 71.392 198.626 70.848C198.498 70.304 198.386 69.7067 198.29 69.056C198.194 68.3947 198.146 67.7333 198.146 67.072C198.146 66.1973 198.184 65.36 198.258 64.56C198.344 63.76 198.434 63.024 198.53 62.352C198.626 61.68 198.701 61.1253 198.754 60.688C198.786 60.496 198.808 60.304 198.818 60.112C198.829 59.92 198.834 59.7547 198.834 59.616L200.322 59.76ZM217.682 59.536C217.64 59.8027 217.608 60.0747 217.586 60.352C217.565 60.6187 217.549 60.8853 217.538 61.152C217.517 61.6 217.496 62.1547 217.474 62.816C217.453 63.4773 217.432 64.1813 217.41 64.928C217.389 65.664 217.373 66.4 217.362 67.136C217.352 67.872 217.346 68.5333 217.346 69.12C217.346 69.7067 217.458 70.176 217.682 70.528C217.906 70.88 218.216 71.1307 218.61 71.28C219.005 71.4293 219.458 71.504 219.97 71.504C220.696 71.504 221.352 71.4133 221.938 71.232C222.525 71.04 223.048 70.7893 223.506 70.48C223.965 70.16 224.37 69.8027 224.722 69.408C225.085 69.0133 225.41 68.608 225.698 68.192L226.61 69.28C226.333 69.664 225.992 70.064 225.586 70.48C225.192 70.8853 224.722 71.264 224.178 71.616C223.634 71.968 223.005 72.256 222.29 72.48C221.586 72.704 220.797 72.816 219.922 72.816C219.165 72.816 218.493 72.6987 217.906 72.464C217.32 72.2293 216.861 71.8507 216.53 71.328C216.2 70.8053 216.034 70.112 216.034 69.248C216.034 68.768 216.04 68.24 216.05 67.664C216.061 67.0773 216.077 66.4747 216.098 65.856C216.12 65.2373 216.136 64.6347 216.146 64.048C216.157 63.4507 216.168 62.9013 216.178 62.4C216.189 61.8987 216.194 61.4827 216.194 61.152C216.194 60.8533 216.184 60.5653 216.162 60.288C216.141 60.0107 216.109 59.7547 216.066 59.52L217.682 59.536ZM229.118 61.376C229.427 61.3653 229.704 61.3547 229.95 61.344C230.195 61.3227 230.392 61.3067 230.542 61.296C230.798 61.264 231.166 61.2267 231.646 61.184C232.136 61.1307 232.696 61.0773 233.326 61.024C233.955 60.96 234.632 60.896 235.358 60.832C236.083 60.768 236.814 60.704 237.55 60.64C238.136 60.5867 238.691 60.544 239.214 60.512C239.736 60.4693 240.222 60.4373 240.67 60.416C241.118 60.384 241.518 60.3627 241.87 60.352V61.632C241.571 61.6213 241.23 61.6213 240.846 61.632C240.462 61.6427 240.083 61.6693 239.71 61.712C239.336 61.744 239.011 61.8027 238.734 61.888C238.168 62.0693 237.656 62.3467 237.198 62.72C236.75 63.0827 236.366 63.504 236.046 63.984C235.726 64.4533 235.48 64.9493 235.31 65.472C235.15 65.984 235.07 66.4747 235.07 66.944C235.07 67.5733 235.176 68.1227 235.39 68.592C235.603 69.0507 235.891 69.44 236.254 69.76C236.627 70.08 237.048 70.3413 237.518 70.544C237.998 70.7467 238.499 70.896 239.022 70.992C239.544 71.088 240.067 71.1467 240.59 71.168L240.126 72.496C239.539 72.4747 238.942 72.3893 238.334 72.24C237.736 72.1013 237.166 71.8987 236.622 71.632C236.078 71.3547 235.592 71.008 235.166 70.592C234.739 70.176 234.403 69.6907 234.158 69.136C233.912 68.5813 233.79 67.9467 233.79 67.232C233.79 66.4 233.934 65.632 234.222 64.928C234.52 64.2133 234.899 63.5893 235.358 63.056C235.816 62.5227 236.291 62.112 236.782 61.824C236.44 61.8667 236.019 61.9147 235.518 61.968C235.016 62.0213 234.472 62.08 233.886 62.144C233.31 62.1973 232.734 62.2613 232.158 62.336C231.582 62.4107 231.038 62.4853 230.526 62.56C230.024 62.624 229.603 62.6933 229.262 62.768L229.118 61.376ZM247.326 60.832C247.304 60.96 247.283 61.12 247.262 61.312C247.251 61.504 247.235 61.696 247.214 61.888C247.203 62.08 247.198 62.2453 247.198 62.384C247.187 62.7147 247.182 63.0933 247.182 63.52C247.192 63.936 247.203 64.3733 247.214 64.832C247.235 65.28 247.267 65.728 247.31 66.176C247.395 67.0613 247.539 67.84 247.742 68.512C247.944 69.1733 248.19 69.6907 248.478 70.064C248.776 70.4373 249.112 70.624 249.486 70.624C249.688 70.624 249.886 70.5333 250.078 70.352C250.27 70.16 250.451 69.9093 250.622 69.6C250.803 69.28 250.963 68.928 251.102 68.544C251.251 68.1493 251.374 67.7547 251.47 67.36L252.478 68.496C252.158 69.4027 251.832 70.1227 251.502 70.656C251.182 71.1787 250.851 71.5573 250.51 71.792C250.179 72.0267 249.832 72.144 249.47 72.144C248.968 72.144 248.483 71.9627 248.014 71.6C247.544 71.2267 247.139 70.6293 246.798 69.808C246.456 68.976 246.211 67.872 246.062 66.496C246.008 66.0267 245.966 65.52 245.934 64.976C245.912 64.432 245.896 63.9147 245.886 63.424C245.886 62.9333 245.886 62.5333 245.886 62.224C245.886 62.0427 245.88 61.808 245.87 61.52C245.859 61.232 245.827 60.992 245.774 60.8L247.326 60.832ZM255.662 61.28C255.95 61.6427 256.222 62.0693 256.478 62.56C256.744 63.04 256.984 63.5573 257.198 64.112C257.422 64.656 257.619 65.2213 257.79 65.808C257.971 66.3947 258.115 66.9813 258.222 67.568C258.339 68.144 258.424 68.6987 258.478 69.232L257.198 69.76C257.134 69.0347 257.022 68.2987 256.862 67.552C256.702 66.7947 256.504 66.064 256.27 65.36C256.035 64.6453 255.763 63.9733 255.454 63.344C255.144 62.7147 254.798 62.1707 254.414 61.712L255.662 61.28ZM268.926 59.296C268.904 59.4347 268.883 59.5893 268.862 59.76C268.851 59.9307 268.84 60.1333 268.83 60.368C268.83 60.528 268.824 60.768 268.814 61.088C268.814 61.408 268.814 61.7707 268.814 62.176C268.814 62.5707 268.814 62.9707 268.814 63.376C268.814 63.7813 268.814 64.1547 268.814 64.496C268.814 65.0293 268.824 65.5893 268.846 66.176C268.867 66.7627 268.894 67.3333 268.926 67.888C268.958 68.4427 268.984 68.9493 269.006 69.408C269.027 69.8667 269.038 70.2293 269.038 70.496C269.038 70.8693 268.947 71.2267 268.766 71.568C268.595 71.9093 268.302 72.1867 267.886 72.4C267.48 72.624 266.926 72.736 266.222 72.736C265.07 72.736 264.19 72.5333 263.582 72.128C262.974 71.7333 262.67 71.152 262.67 70.384C262.67 69.8933 262.814 69.4667 263.102 69.104C263.4 68.7413 263.827 68.4587 264.382 68.256C264.936 68.0427 265.598 67.936 266.366 67.936C267.208 67.936 267.998 68.0373 268.734 68.24C269.48 68.432 270.163 68.6773 270.782 68.976C271.4 69.2747 271.95 69.5893 272.43 69.92C272.91 70.24 273.304 70.528 273.614 70.784L272.878 71.92C272.515 71.5787 272.094 71.2373 271.614 70.896C271.144 70.5547 270.627 70.24 270.062 69.952C269.507 69.664 268.904 69.4347 268.254 69.264C267.614 69.0827 266.931 68.992 266.206 68.992C265.438 68.992 264.851 69.12 264.446 69.376C264.051 69.632 263.854 69.9467 263.854 70.32C263.854 70.5547 263.928 70.7733 264.078 70.976C264.227 71.168 264.467 71.3227 264.798 71.44C265.128 71.5573 265.555 71.616 266.078 71.616C266.387 71.616 266.67 71.5787 266.926 71.504C267.182 71.4187 267.384 71.2747 267.534 71.072C267.694 70.8693 267.774 70.5867 267.774 70.224C267.774 69.9147 267.763 69.5147 267.742 69.024C267.731 68.5227 267.715 67.9947 267.694 67.44C267.672 66.8747 267.651 66.3307 267.63 65.808C267.619 65.2853 267.614 64.848 267.614 64.496C267.614 64.1333 267.614 63.7653 267.614 63.392C267.614 63.008 267.614 62.6293 267.614 62.256C267.614 61.8827 267.614 61.5253 267.614 61.184C267.624 60.8427 267.63 60.5333 267.63 60.256C267.63 60.128 267.624 59.9627 267.614 59.76C267.603 59.5573 267.587 59.4027 267.566 59.296H268.926ZM262.798 61.04C263.064 61.0827 263.374 61.1253 263.726 61.168C264.078 61.2107 264.446 61.2533 264.83 61.296C265.224 61.328 265.598 61.3547 265.95 61.376C266.312 61.3867 266.627 61.392 266.894 61.392C267.907 61.392 268.942 61.3547 269.998 61.28C271.064 61.2053 272.115 61.0827 273.15 60.912L273.134 62.08C272.547 62.144 271.907 62.208 271.214 62.272C270.52 62.336 269.806 62.3893 269.07 62.432C268.344 62.4747 267.624 62.496 266.91 62.496C266.536 62.496 266.094 62.48 265.582 62.448C265.07 62.416 264.563 62.3787 264.062 62.336C263.571 62.2933 263.155 62.256 262.814 62.224L262.798 61.04ZM262.718 64.432C263.006 64.4747 263.326 64.5173 263.678 64.56C264.03 64.6027 264.392 64.6347 264.766 64.656C265.139 64.6773 265.496 64.6987 265.838 64.72C266.179 64.7307 266.483 64.736 266.75 64.736C267.528 64.736 268.28 64.72 269.006 64.688C269.742 64.6453 270.462 64.592 271.166 64.528C271.88 64.4533 272.584 64.3627 273.278 64.256L273.262 65.456C272.728 65.5307 272.195 65.5947 271.662 65.648C271.139 65.6907 270.611 65.728 270.078 65.76C269.555 65.792 269.016 65.8187 268.462 65.84C267.918 65.8507 267.342 65.856 266.734 65.856C266.371 65.856 265.95 65.8453 265.47 65.824C265 65.8027 264.52 65.776 264.03 65.744C263.55 65.712 263.118 65.6747 262.734 65.632L262.718 64.432ZM285.79 59.328C285.79 59.3813 285.779 59.4773 285.758 59.616C285.747 59.7547 285.736 59.8933 285.726 60.032C285.726 60.16 285.72 60.2613 285.71 60.336C285.699 60.5387 285.694 60.816 285.694 61.168C285.694 61.52 285.694 61.904 285.694 62.32C285.694 62.736 285.694 63.1573 285.694 63.584C285.704 64.0107 285.71 64.4107 285.71 64.784C285.72 65.1573 285.726 65.472 285.726 65.728L284.494 65.12C284.494 64.9707 284.494 64.7467 284.494 64.448C284.494 64.1387 284.494 63.7867 284.494 63.392C284.494 62.9867 284.488 62.5867 284.478 62.192C284.478 61.7973 284.472 61.4347 284.462 61.104C284.451 60.7733 284.44 60.5173 284.43 60.336C284.419 60.1227 284.403 59.92 284.382 59.728C284.36 59.5253 284.344 59.392 284.334 59.328H285.79ZM277.294 61.552C277.731 61.552 278.227 61.5467 278.782 61.536C279.336 61.5147 279.923 61.4933 280.542 61.472C281.171 61.4507 281.806 61.4347 282.446 61.424C283.086 61.4133 283.699 61.4027 284.286 61.392C284.883 61.3813 285.432 61.376 285.934 61.376C286.414 61.376 286.894 61.376 287.374 61.376C287.854 61.376 288.302 61.376 288.718 61.376C289.144 61.376 289.518 61.3813 289.838 61.392C290.168 61.392 290.43 61.392 290.622 61.392L290.606 62.576C290.158 62.5547 289.555 62.5387 288.798 62.528C288.051 62.5067 287.091 62.496 285.918 62.496C285.224 62.496 284.499 62.5067 283.742 62.528C282.995 62.5387 282.243 62.5547 281.486 62.576C280.728 62.5973 279.992 62.6293 279.278 62.672C278.574 62.704 277.923 62.7413 277.326 62.784L277.294 61.552ZM285.694 66.208C285.694 66.912 285.587 67.504 285.374 67.984C285.171 68.464 284.883 68.8213 284.51 69.056C284.147 69.2907 283.72 69.408 283.23 69.408C282.899 69.408 282.574 69.3547 282.254 69.248C281.944 69.1307 281.662 68.96 281.406 68.736C281.16 68.5013 280.963 68.2187 280.814 67.888C280.675 67.5467 280.606 67.1627 280.606 66.736C280.606 66.2027 280.734 65.728 280.99 65.312C281.246 64.896 281.587 64.5653 282.014 64.32C282.451 64.0747 282.92 63.952 283.422 63.952C284.051 63.952 284.568 64.096 284.974 64.384C285.39 64.6613 285.704 65.0453 285.918 65.536C286.131 66.016 286.238 66.5653 286.238 67.184C286.238 67.7173 286.158 68.2613 285.998 68.816C285.848 69.3707 285.592 69.904 285.23 70.416C284.878 70.928 284.392 71.3973 283.774 71.824C283.166 72.24 282.392 72.5867 281.454 72.864L280.382 71.808C281.107 71.6373 281.758 71.4187 282.334 71.152C282.91 70.8853 283.395 70.56 283.79 70.176C284.184 69.792 284.483 69.344 284.686 68.832C284.899 68.32 285.006 67.7333 285.006 67.072C285.006 66.3467 284.851 65.824 284.542 65.504C284.232 65.184 283.859 65.024 283.422 65.024C283.144 65.024 282.883 65.0933 282.638 65.232C282.392 65.36 282.19 65.552 282.03 65.808C281.88 66.064 281.806 66.368 281.806 66.72C281.806 67.2213 281.966 67.6107 282.286 67.888C282.616 68.1653 283 68.304 283.438 68.304C283.768 68.304 284.051 68.2133 284.286 68.032C284.52 67.84 284.686 67.5573 284.782 67.184C284.888 66.8 284.899 66.3253 284.814 65.76L285.694 66.208Z" fill="#2E241B"/>
</svg>
